<svg xmlns="http://www.w3.org/2000/svg" xmlns:xlink="http://www.w3.org/1999/xlink" width="128" zoomAndPan="magnify" viewBox="0 0 96 95.999999" height="128" preserveAspectRatio="xMidYMid meet" version="1.0"><defs><g/></defs><path fill="#43d6b5" d="M 48.335938 4.371094 C 24.3125 4.371094 4.835938 23.847656 4.835938 47.871094 C 4.835938 71.894531 24.3125 91.371094 48.335938 91.371094 C 72.359375 91.371094 91.835938 71.894531 91.835938 47.871094 C 91.835938 23.847656 72.359375 4.371094 48.335938 4.371094 " fill-opacity="1" fill-rule="nonzero"/><path fill="#de3e80" d="M 64.332031 38.773438 L 32.480469 38.773438 C 30.71875 38.773438 29.28125 37.320312 29.28125 35.535156 L 29.28125 22.519531 C 29.28125 20.734375 30.71875 19.277344 32.480469 19.277344 L 64.332031 19.277344 C 66.097656 19.277344 67.53125 20.734375 67.53125 22.519531 L 67.53125 35.535156 C 67.53125 37.320312 66.097656 38.773438 64.332031 38.773438 " fill-opacity="1" fill-rule="nonzero"/><path fill="#f37329" d="M 75.667969 57.925781 L 20.558594 57.925781 C 18.796875 57.925781 17.363281 56.46875 17.363281 54.683594 L 17.363281 41.667969 C 17.363281 39.882812 18.796875 38.425781 20.558594 38.425781 L 75.667969 38.425781 C 77.425781 38.425781 78.863281 39.882812 78.863281 41.667969 L 78.863281 54.683594 C 78.863281 56.46875 77.425781 57.925781 75.667969 57.925781 " fill-opacity="1" fill-rule="nonzero"/><path fill="#f9c440" d="M 57.558594 77.074219 L 39.210938 77.074219 C 37.445312 77.074219 36.007812 75.617188 36.007812 73.832031 L 36.007812 60.816406 C 36.007812 59.03125 37.445312 57.574219 39.210938 57.574219 L 57.558594 57.574219 C 59.324219 57.574219 60.757812 59.03125 60.757812 60.816406 L 60.757812 73.832031 C 60.757812 75.617188 59.324219 77.074219 57.558594 77.074219 " fill-opacity="1" fill-rule="nonzero"/><path fill="#ffe16b" d="M 56.757812 22.824219 L 58.582031 26.519531 C 58.609375 26.585938 58.675781 26.632812 58.75 26.640625 L 62.839844 27.234375 C 63.015625 27.261719 63.089844 27.484375 62.960938 27.601562 L 60 30.476562 C 59.945312 30.523438 59.925781 30.597656 59.9375 30.671875 L 60.632812 34.738281 C 60.660156 34.914062 60.472656 35.054688 60.316406 34.972656 L 56.65625 33.046875 C 56.589844 33.011719 56.515625 33.011719 56.449219 33.046875 L 52.789062 34.972656 C 52.632812 35.054688 52.445312 34.914062 52.472656 34.738281 L 53.167969 30.671875 C 53.179688 30.597656 53.160156 30.535156 53.105469 30.476562 L 50.15625 27.601562 C 50.027344 27.472656 50.101562 27.261719 50.277344 27.234375 L 54.363281 26.640625 C 54.4375 26.632812 54.496094 26.585938 54.53125 26.519531 L 56.359375 22.824219 C 56.441406 22.667969 56.671875 22.667969 56.757812 22.824219 Z M 56.757812 22.824219 " fill-opacity="1" fill-rule="nonzero"/><path fill="#8cd5ff" d="M 41.789062 42.855469 L 42.910156 46.382812 C 42.9375 46.464844 43.007812 46.511719 43.089844 46.511719 L 47.050781 46.484375 C 47.230469 46.484375 47.300781 46.707031 47.160156 46.816406 L 43.929688 49.121094 C 43.867188 49.167969 43.84375 49.257812 43.867188 49.328125 L 45.125 53.089844 C 45.175781 53.261719 44.988281 53.402344 44.847656 53.296875 L 41.691406 50.988281 C 41.59375 50.917969 41.476562 50.917969 41.375 50.988281 L 38.230469 53.304688 C 38.085938 53.414062 37.890625 53.269531 37.953125 53.097656 L 39.207031 49.335938 C 39.234375 49.265625 39.207031 49.175781 39.144531 49.132812 L 35.917969 46.824219 C 35.773438 46.714844 35.847656 46.492188 36.027344 46.492188 L 39.988281 46.519531 C 40.066406 46.519531 40.140625 46.464844 40.167969 46.394531 L 41.277344 42.855469 C 41.367188 42.597656 41.707031 42.597656 41.789062 42.855469 Z M 41.789062 42.855469 " fill-opacity="1" fill-rule="nonzero"/><path fill="#8cd5ff" d="M 55.015625 42.855469 L 56.136719 46.382812 C 56.164062 46.464844 56.234375 46.511719 56.316406 46.511719 L 60.277344 46.484375 C 60.457031 46.484375 60.53125 46.707031 60.386719 46.816406 L 57.160156 49.121094 C 57.097656 49.167969 57.070312 49.257812 57.097656 49.328125 L 58.351562 53.089844 C 58.40625 53.261719 58.21875 53.402344 58.074219 53.296875 L 54.917969 50.988281 C 54.820312 50.917969 54.703125 50.917969 54.605469 50.988281 L 51.457031 53.304688 C 51.316406 53.414062 51.117188 53.269531 51.179688 53.097656 L 52.433594 49.335938 C 52.460938 49.265625 52.433594 49.175781 52.371094 49.132812 L 49.144531 46.824219 C 49.003906 46.714844 49.074219 46.492188 49.253906 46.492188 L 53.214844 46.519531 C 53.296875 46.519531 53.367188 46.464844 53.394531 46.394531 L 54.507812 42.855469 C 54.597656 42.597656 54.9375 42.597656 55.015625 42.855469 Z M 55.015625 42.855469 " fill-opacity="1" fill-rule="nonzero"/><path fill="#8cd5ff" d="M 68.355469 42.855469 L 69.476562 46.382812 C 69.503906 46.464844 69.574219 46.511719 69.65625 46.511719 L 73.617188 46.484375 C 73.796875 46.484375 73.867188 46.707031 73.722656 46.816406 L 70.496094 49.121094 C 70.433594 49.167969 70.40625 49.257812 70.433594 49.328125 L 71.6875 53.089844 C 71.742188 53.261719 71.554688 53.402344 71.410156 53.296875 L 68.257812 50.988281 C 68.15625 50.917969 68.039062 50.917969 67.941406 50.988281 L 64.796875 53.304688 C 64.652344 53.414062 64.457031 53.269531 64.519531 53.097656 L 65.773438 49.335938 C 65.800781 49.265625 65.773438 49.175781 65.710938 49.132812 L 62.484375 46.824219 C 62.339844 46.714844 62.410156 46.492188 62.589844 46.492188 L 66.554688 46.519531 C 66.632812 46.519531 66.707031 46.464844 66.730469 46.394531 L 67.84375 42.855469 C 67.933594 42.597656 68.273438 42.597656 68.355469 42.855469 Z M 68.355469 42.855469 " fill-opacity="1" fill-rule="nonzero"/><path fill="#0e141f" d="M 56.542969 70.097656 L 56.542969 64.234375 L 39.292969 64.234375 L 39.292969 64.390625 L 39.3125 70.097656 C 39.3125 72.957031 43.175781 75.410156 47.941406 75.410156 C 52.675781 75.417969 56.542969 72.96875 56.542969 70.097656 M 47.921875 69.871094 L 47.960938 69.871094 L 47.921875 69.871094 " fill-opacity="1" fill-rule="nonzero"/><path fill="#667885" d="M 51.363281 69.421875 L 51.75 69.304688 C 51.875 69.265625 51.996094 69.226562 52.113281 69.175781 L 52.125 69.175781 C 52.242188 69.136719 52.359375 69.089844 52.480469 69.039062 L 52.488281 69.039062 C 52.609375 68.988281 52.71875 68.941406 52.835938 68.890625 L 52.84375 68.890625 C 52.953125 68.84375 53.074219 68.792969 53.179688 68.734375 L 53.191406 68.734375 C 53.300781 68.6875 53.410156 68.628906 53.507812 68.570312 L 53.519531 68.570312 C 53.625 68.507812 53.726562 68.449219 53.824219 68.390625 C 53.921875 68.332031 54.023438 68.273438 54.121094 68.207031 C 55.59375 67.234375 56.511719 65.921875 56.542969 64.460938 L 56.542969 64.390625 C 56.542969 61.363281 52.675781 58.910156 47.914062 58.910156 C 43.148438 58.910156 39.28125 61.363281 39.28125 64.390625 L 39.28125 64.460938 C 39.34375 67.460938 43.175781 69.871094 47.902344 69.871094 C 49.136719 69.882812 50.304688 69.714844 51.363281 69.421875 " fill-opacity="1" fill-rule="nonzero"/><path fill="#333333" d="M 45.03125 64.210938 C 45.03125 63.988281 45.144531 63.753906 45.074219 63.550781 C 45.003906 63.34375 44.765625 63.214844 44.636719 63.042969 C 44.503906 62.867188 44.449219 62.609375 44.265625 62.484375 C 44.085938 62.355469 43.816406 62.386719 43.601562 62.316406 C 43.390625 62.253906 43.191406 62.074219 42.960938 62.074219 C 42.726562 62.074219 42.527344 62.25 42.320312 62.316406 C 42.101562 62.382812 41.832031 62.355469 41.652344 62.484375 C 41.46875 62.609375 41.414062 62.867188 41.28125 63.042969 C 41.152344 63.214844 40.914062 63.34375 40.84375 63.550781 C 40.773438 63.753906 40.886719 63.988281 40.886719 64.210938 C 40.886719 64.433594 40.773438 64.671875 40.84375 64.871094 C 40.914062 65.082031 41.152344 65.210938 41.28125 65.382812 C 41.414062 65.558594 41.46875 65.8125 41.652344 65.941406 C 41.832031 66.066406 42.101562 66.039062 42.316406 66.105469 C 42.527344 66.171875 42.726562 66.347656 42.957031 66.347656 C 43.191406 66.347656 43.390625 66.171875 43.597656 66.105469 C 43.816406 66.039062 44.085938 66.066406 44.265625 65.941406 C 44.449219 65.8125 44.503906 65.558594 44.636719 65.382812 C 44.769531 65.210938 45.003906 65.082031 45.074219 64.871094 C 45.144531 64.671875 45.03125 64.433594 45.03125 64.210938 " fill-opacity="1" fill-rule="nonzero"/><path fill="#333333" d="M 49.332031 67.148438 C 49.332031 66.925781 49.441406 66.6875 49.375 66.488281 C 49.304688 66.277344 49.066406 66.152344 48.933594 65.976562 C 48.800781 65.800781 48.746094 65.546875 48.566406 65.417969 C 48.386719 65.292969 48.117188 65.320312 47.898438 65.253906 C 47.691406 65.1875 47.492188 65.011719 47.257812 65.011719 C 47.027344 65.011719 46.828125 65.1875 46.617188 65.253906 C 46.402344 65.320312 46.132812 65.292969 45.949219 65.417969 C 45.769531 65.546875 45.714844 65.800781 45.582031 65.976562 C 45.449219 66.152344 45.210938 66.277344 45.140625 66.488281 C 45.074219 66.6875 45.183594 66.925781 45.183594 67.148438 C 45.183594 67.371094 45.074219 67.609375 45.140625 67.808594 C 45.210938 68.015625 45.449219 68.144531 45.582031 68.320312 C 45.714844 68.496094 45.769531 68.75 45.949219 68.878906 C 46.128906 69.003906 46.398438 68.976562 46.617188 69.042969 C 46.828125 69.109375 47.027344 69.285156 47.257812 69.285156 C 47.488281 69.285156 47.691406 69.109375 47.898438 69.042969 C 48.113281 68.976562 48.386719 69.003906 48.566406 68.878906 C 48.746094 68.75 48.800781 68.496094 48.933594 68.320312 C 49.066406 68.144531 49.304688 68.015625 49.375 67.808594 C 49.441406 67.605469 49.332031 67.371094 49.332031 67.148438 " fill-opacity="1" fill-rule="nonzero"/><path fill="#333333" d="M 50.394531 62.074219 C 50.394531 61.851562 50.507812 61.613281 50.4375 61.414062 C 50.367188 61.203125 50.132812 61.078125 50 60.902344 C 49.867188 60.726562 49.8125 60.472656 49.628906 60.34375 C 49.449219 60.21875 49.179688 60.246094 48.964844 60.179688 C 48.753906 60.113281 48.554688 59.9375 48.324219 59.9375 C 48.09375 59.9375 47.890625 60.113281 47.683594 60.179688 C 47.46875 60.246094 47.195312 60.21875 47.015625 60.34375 C 46.832031 60.472656 46.777344 60.726562 46.648438 60.902344 C 46.515625 61.078125 46.277344 61.203125 46.207031 61.414062 C 46.140625 61.613281 46.25 61.851562 46.25 62.074219 C 46.25 62.296875 46.136719 62.535156 46.207031 62.734375 C 46.277344 62.941406 46.515625 63.070312 46.644531 63.246094 C 46.777344 63.417969 46.832031 63.675781 47.015625 63.800781 C 47.195312 63.929688 47.464844 63.902344 47.683594 63.96875 C 47.890625 64.035156 48.089844 64.210938 48.324219 64.210938 C 48.554688 64.210938 48.753906 64.035156 48.964844 63.96875 C 49.179688 63.902344 49.449219 63.929688 49.628906 63.800781 C 49.8125 63.675781 49.867188 63.417969 50 63.246094 C 50.132812 63.070312 50.367188 62.941406 50.4375 62.734375 C 50.507812 62.53125 50.394531 62.296875 50.394531 62.074219 " fill-opacity="1" fill-rule="nonzero"/><path fill="#333333" d="M 54.664062 65.601562 C 54.664062 65.378906 54.777344 65.140625 54.707031 64.941406 C 54.636719 64.730469 54.398438 64.601562 54.269531 64.429688 C 54.136719 64.253906 54.082031 64 53.898438 63.871094 C 53.71875 63.746094 53.449219 63.773438 53.234375 63.707031 C 53.023438 63.640625 52.824219 63.460938 52.59375 63.460938 C 52.359375 63.460938 52.160156 63.640625 51.953125 63.707031 C 51.734375 63.773438 51.464844 63.746094 51.285156 63.871094 C 51.101562 64 51.046875 64.253906 50.914062 64.429688 C 50.785156 64.601562 50.546875 64.730469 50.476562 64.941406 C 50.410156 65.140625 50.519531 65.378906 50.519531 65.601562 C 50.519531 65.824219 50.40625 66.058594 50.476562 66.261719 C 50.546875 66.46875 50.785156 66.597656 50.914062 66.769531 C 51.046875 66.945312 51.101562 67.203125 51.285156 67.328125 C 51.464844 67.457031 51.734375 67.425781 51.953125 67.496094 C 52.160156 67.558594 52.359375 67.738281 52.59375 67.738281 C 52.824219 67.738281 53.023438 67.5625 53.234375 67.496094 C 53.449219 67.425781 53.71875 67.457031 53.898438 67.328125 C 54.082031 67.203125 54.136719 66.945312 54.269531 66.769531 C 54.402344 66.597656 54.636719 66.46875 54.707031 66.261719 C 54.777344 66.058594 54.664062 65.824219 54.664062 65.601562 " fill-opacity="1" fill-rule="nonzero"/><path fill="#ffbf20" d="M 44.699219 22.171875 L 44.699219 34.578125 L 39.507812 32.410156 L 34.3125 34.578125 L 34.3125 22.171875 L 44.699219 22.171875 " fill-opacity="1" fill-rule="nonzero"/><path fill="#f9c440" d="M 33.878906 21.734375 L 33.878906 35.234375 L 39.503906 32.886719 L 45.128906 35.234375 L 45.128906 21.734375 L 33.878906 21.734375 M 44.699219 23.824219 L 44.699219 34.578125 L 39.507812 32.410156 L 34.3125 34.578125 L 34.3125 22.171875 L 44.699219 22.171875 L 44.699219 23.824219 " fill-opacity="1" fill-rule="nonzero"/><g fill="#000000" fill-opacity="1"><g transform="translate(38.138769, 30.569862)"><g><path d="M 0.550781 -6.199219 C 0.449219 -6.191406 0.398438 -6.136719 0.398438 -6.03125 L 0.398438 -5.265625 C 0.398438 -5.160156 0.464844 -5.105469 0.566406 -5.121094 L 1.0625 -5.183594 L 1.0625 -0.128906 C 1.0625 -0.046875 1.105469 0 1.191406 0 L 2.023438 0 C 2.105469 0 2.152344 -0.046875 2.152344 -0.128906 L 2.152344 -6.273438 C 2.152344 -6.351562 2.105469 -6.398438 2.023438 -6.398438 Z M 0.550781 -6.199219 "/></g></g></g><path fill="#ffbf20" d="M 32.027344 41.804688 L 32.027344 54.210938 L 26.835938 52.042969 L 21.636719 54.210938 L 21.636719 41.804688 L 32.027344 41.804688 " fill-opacity="1" fill-rule="nonzero"/><path fill="#f9c440" d="M 21.207031 41.371094 L 21.207031 54.867188 L 26.832031 52.519531 L 32.457031 54.867188 L 32.457031 41.371094 L 21.207031 41.371094 M 32.027344 43.457031 L 32.027344 54.210938 L 26.835938 52.042969 L 21.636719 54.210938 L 21.636719 41.804688 L 32.027344 41.804688 L 32.027344 43.457031 " fill-opacity="1" fill-rule="nonzero"/><g fill="#000000" fill-opacity="1"><g transform="translate(24.77887, 51.029979)"><g><path d="M 3.382812 -3.0625 C 3.535156 -3.144531 3.601562 -3.207031 3.601562 -3.359375 L 3.601562 -5.246094 C 3.601562 -6 3.191406 -6.398438 2.449219 -6.398438 L 1.550781 -6.398438 C 0.800781 -6.398438 0.398438 -6 0.398438 -5.246094 L 0.398438 -4.398438 C 0.398438 -4.320312 0.441406 -4.273438 0.527344 -4.273438 L 1.359375 -4.273438 C 1.441406 -4.273438 1.488281 -4.320312 1.488281 -4.398438 L 1.488281 -5.023438 C 1.488281 -5.230469 1.59375 -5.34375 1.808594 -5.34375 L 2.191406 -5.34375 C 2.390625 -5.34375 2.511719 -5.230469 2.511719 -5.023438 L 2.511719 -3.839844 L 0.609375 -2.816406 C 0.457031 -2.734375 0.398438 -2.671875 0.398438 -2.519531 L 0.398438 -0.160156 C 0.398438 -0.0546875 0.457031 0 0.558594 0 L 3.441406 0 C 3.542969 0 3.601562 -0.0546875 3.601562 -0.160156 L 3.601562 -1.382812 C 3.601562 -1.488281 3.542969 -1.542969 3.441406 -1.542969 L 2.671875 -1.542969 C 2.566406 -1.542969 2.511719 -1.488281 2.511719 -1.382812 L 2.511719 -1.054688 L 1.648438 -1.054688 C 1.542969 -1.054688 1.488281 -1.113281 1.488281 -1.214844 L 1.488281 -1.910156 C 1.488281 -2 1.519531 -2.054688 1.601562 -2.105469 Z M 3.382812 -3.0625 "/></g></g></g></svg>