<?xml version="1.0" encoding="UTF-8"?>
<svg xmlns="http://www.w3.org/2000/svg" xmlns:xlink="http://www.w3.org/1999/xlink" width="16" height="16" viewBox="0 0 16 16" version="1.1">
<g id="surface1">
<path style=" stroke:none;fill-rule:nonzero;fill:rgb(26.274511%,83.92157%,70.980394%);fill-opacity:1;" d="M 8.054688 0.730469 C 4.050781 0.730469 0.804688 3.972656 0.804688 7.980469 C 0.804688 11.980469 4.050781 15.230469 8.054688 15.230469 C 12.058594 15.230469 15.304688 11.980469 15.304688 7.980469 C 15.304688 3.972656 12.058594 0.730469 8.054688 0.730469 "/>
<path style=" stroke:none;fill-rule:nonzero;fill:rgb(87.058824%,24.313726%,50.196081%);fill-opacity:1;" d="M 10.722656 6.460938 L 5.414062 6.460938 C 5.121094 6.460938 4.878906 6.21875 4.878906 5.921875 L 4.878906 3.753906 C 4.878906 3.457031 5.121094 3.214844 5.414062 3.214844 L 10.722656 3.214844 C 11.015625 3.214844 11.253906 3.457031 11.253906 3.753906 L 11.253906 5.921875 C 11.253906 6.21875 11.015625 6.460938 10.722656 6.460938 "/>
<path style=" stroke:none;fill-rule:nonzero;fill:rgb(95.294118%,45.09804%,16.078432%);fill-opacity:1;" d="M 12.613281 9.652344 L 3.425781 9.652344 C 3.132812 9.652344 2.894531 9.410156 2.894531 9.113281 L 2.894531 6.945312 C 2.894531 6.648438 3.132812 6.402344 3.425781 6.402344 L 12.613281 6.402344 C 12.902344 6.402344 13.144531 6.648438 13.144531 6.945312 L 13.144531 9.113281 C 13.144531 9.410156 12.902344 9.652344 12.613281 9.652344 "/>
<path style=" stroke:none;fill-rule:nonzero;fill:rgb(97.647059%,76.862746%,25.098041%);fill-opacity:1;" d="M 9.59375 12.847656 L 6.535156 12.847656 C 6.242188 12.847656 6 12.601562 6 12.304688 L 6 10.136719 C 6 9.839844 6.242188 9.597656 6.535156 9.597656 L 9.59375 9.597656 C 9.886719 9.597656 10.125 9.839844 10.125 10.136719 L 10.125 12.304688 C 10.125 12.601562 9.886719 12.847656 9.59375 12.847656 "/>
<path style=" stroke:none;fill-rule:nonzero;fill:rgb(100%,88.235295%,41.960785%);fill-opacity:1;" d="M 9.460938 3.804688 L 9.761719 4.417969 C 9.769531 4.429688 9.777344 4.4375 9.792969 4.441406 L 10.472656 4.539062 C 10.503906 4.542969 10.515625 4.582031 10.492188 4.601562 L 10 5.078125 C 9.992188 5.085938 9.988281 5.097656 9.988281 5.113281 L 10.105469 5.789062 C 10.109375 5.820312 10.078125 5.84375 10.050781 5.828125 L 9.441406 5.507812 C 9.433594 5.503906 9.417969 5.503906 9.410156 5.507812 L 8.796875 5.828125 C 8.773438 5.84375 8.742188 5.820312 8.746094 5.789062 L 8.863281 5.113281 C 8.863281 5.097656 8.859375 5.089844 8.851562 5.078125 L 8.359375 4.601562 C 8.339844 4.578125 8.351562 4.542969 8.378906 4.539062 L 9.058594 4.441406 C 9.074219 4.4375 9.082031 4.429688 9.089844 4.417969 L 9.394531 3.804688 C 9.40625 3.777344 9.445312 3.777344 9.460938 3.804688 Z M 9.460938 3.804688 "/>
<path style=" stroke:none;fill-rule:nonzero;fill:rgb(54.901963%,83.529413%,100%);fill-opacity:1;" d="M 6.964844 7.144531 L 7.152344 7.730469 C 7.15625 7.746094 7.167969 7.753906 7.183594 7.753906 L 7.839844 7.746094 C 7.871094 7.746094 7.882812 7.785156 7.859375 7.800781 L 7.320312 8.1875 C 7.3125 8.195312 7.308594 8.210938 7.3125 8.222656 L 7.519531 8.847656 C 7.527344 8.878906 7.496094 8.902344 7.472656 8.882812 L 6.949219 8.496094 C 6.933594 8.488281 6.914062 8.488281 6.894531 8.496094 L 6.371094 8.882812 C 6.347656 8.902344 6.316406 8.878906 6.324219 8.847656 L 6.535156 8.222656 C 6.539062 8.210938 6.535156 8.195312 6.523438 8.1875 L 5.988281 7.804688 C 5.960938 7.785156 5.972656 7.75 6.003906 7.75 L 6.664062 7.753906 C 6.675781 7.753906 6.691406 7.746094 6.695312 7.730469 L 6.878906 7.144531 C 6.894531 7.097656 6.949219 7.097656 6.964844 7.144531 Z M 6.964844 7.144531 "/>
<path style=" stroke:none;fill-rule:nonzero;fill:rgb(54.901963%,83.529413%,100%);fill-opacity:1;" d="M 9.167969 7.144531 L 9.355469 7.730469 C 9.359375 7.746094 9.371094 7.753906 9.386719 7.753906 L 10.046875 7.746094 C 10.074219 7.746094 10.089844 7.785156 10.066406 7.800781 L 9.527344 8.1875 C 9.515625 8.195312 9.511719 8.210938 9.515625 8.222656 L 9.726562 8.847656 C 9.734375 8.878906 9.703125 8.902344 9.679688 8.882812 L 9.152344 8.496094 C 9.136719 8.488281 9.117188 8.488281 9.101562 8.496094 L 8.574219 8.882812 C 8.550781 8.902344 8.519531 8.878906 8.53125 8.847656 L 8.738281 8.222656 C 8.742188 8.210938 8.738281 8.195312 8.730469 8.1875 L 8.191406 7.804688 C 8.167969 7.785156 8.179688 7.75 8.207031 7.75 L 8.871094 7.753906 C 8.882812 7.753906 8.894531 7.746094 8.898438 7.730469 L 9.085938 7.144531 C 9.097656 7.097656 9.15625 7.097656 9.167969 7.144531 Z M 9.167969 7.144531 "/>
<path style=" stroke:none;fill-rule:nonzero;fill:rgb(54.901963%,83.529413%,100%);fill-opacity:1;" d="M 11.394531 7.144531 L 11.578125 7.730469 C 11.582031 7.746094 11.597656 7.753906 11.609375 7.753906 L 12.269531 7.746094 C 12.300781 7.746094 12.3125 7.785156 12.285156 7.800781 L 11.75 8.1875 C 11.738281 8.195312 11.734375 8.210938 11.738281 8.222656 L 11.949219 8.847656 C 11.957031 8.878906 11.925781 8.902344 11.902344 8.882812 L 11.375 8.496094 C 11.359375 8.488281 11.339844 8.488281 11.324219 8.496094 L 10.800781 8.882812 C 10.777344 8.902344 10.742188 8.878906 10.753906 8.847656 L 10.960938 8.222656 C 10.964844 8.210938 10.960938 8.195312 10.953125 8.1875 L 10.414062 7.804688 C 10.390625 7.785156 10.402344 7.75 10.433594 7.75 L 11.09375 7.753906 C 11.105469 7.753906 11.117188 7.746094 11.121094 7.730469 L 11.308594 7.144531 C 11.324219 7.097656 11.378906 7.097656 11.394531 7.144531 Z M 11.394531 7.144531 "/>
<path style=" stroke:none;fill-rule:nonzero;fill:rgb(5.490196%,7.843138%,12.156863%);fill-opacity:1;" d="M 9.425781 11.683594 L 9.425781 10.707031 L 6.550781 10.707031 L 6.550781 11.683594 C 6.550781 12.160156 7.195312 12.566406 7.988281 12.566406 C 8.777344 12.570312 9.425781 12.160156 9.425781 11.683594 M 7.988281 11.644531 L 7.992188 11.644531 L 7.988281 11.644531 "/>
<path style=" stroke:none;fill-rule:nonzero;fill:rgb(40.000001%,47.058824%,52.156866%);fill-opacity:1;" d="M 8.558594 11.570312 L 8.625 11.550781 C 8.644531 11.542969 8.667969 11.539062 8.683594 11.527344 L 8.6875 11.527344 C 8.707031 11.523438 8.726562 11.515625 8.746094 11.507812 C 8.769531 11.496094 8.785156 11.488281 8.804688 11.480469 L 8.808594 11.480469 C 8.824219 11.472656 8.847656 11.464844 8.863281 11.457031 C 8.882812 11.449219 8.902344 11.4375 8.917969 11.429688 C 8.9375 11.417969 8.953125 11.410156 8.972656 11.398438 C 8.988281 11.386719 9.003906 11.378906 9.019531 11.367188 C 9.265625 11.207031 9.417969 10.988281 9.425781 10.742188 L 9.425781 10.730469 C 9.425781 10.226562 8.777344 9.816406 7.984375 9.816406 C 7.191406 9.816406 6.546875 10.226562 6.546875 10.730469 L 6.546875 10.742188 C 6.558594 11.242188 7.195312 11.644531 7.984375 11.644531 C 8.191406 11.648438 8.382812 11.621094 8.558594 11.570312 "/>
<path style=" stroke:none;fill-rule:nonzero;fill:rgb(20%,20%,20%);fill-opacity:1;" d="M 7.503906 10.703125 C 7.503906 10.664062 7.523438 10.625 7.511719 10.589844 C 7.5 10.558594 7.460938 10.535156 7.441406 10.507812 C 7.417969 10.476562 7.410156 10.433594 7.378906 10.414062 C 7.347656 10.394531 7.300781 10.398438 7.265625 10.386719 C 7.230469 10.375 7.199219 10.347656 7.160156 10.347656 C 7.121094 10.347656 7.089844 10.375 7.054688 10.386719 C 7.015625 10.398438 6.972656 10.394531 6.941406 10.414062 C 6.910156 10.433594 6.902344 10.476562 6.878906 10.507812 C 6.859375 10.535156 6.820312 10.558594 6.808594 10.589844 C 6.796875 10.625 6.816406 10.664062 6.816406 10.703125 C 6.816406 10.738281 6.796875 10.777344 6.808594 10.8125 C 6.820312 10.847656 6.859375 10.867188 6.878906 10.898438 C 6.902344 10.925781 6.910156 10.96875 6.941406 10.988281 C 6.972656 11.011719 7.015625 11.007812 7.050781 11.019531 C 7.089844 11.027344 7.121094 11.058594 7.160156 11.058594 C 7.199219 11.058594 7.230469 11.027344 7.265625 11.019531 C 7.300781 11.007812 7.347656 11.011719 7.378906 10.988281 C 7.410156 10.96875 7.417969 10.925781 7.441406 10.898438 C 7.460938 10.867188 7.5 10.847656 7.511719 10.8125 C 7.523438 10.777344 7.503906 10.738281 7.503906 10.703125 "/>
<path style=" stroke:none;fill-rule:nonzero;fill:rgb(20%,20%,20%);fill-opacity:1;" d="M 8.222656 11.191406 C 8.222656 11.152344 8.238281 11.113281 8.230469 11.082031 C 8.21875 11.046875 8.175781 11.027344 8.15625 10.996094 C 8.132812 10.964844 8.125 10.925781 8.09375 10.902344 C 8.066406 10.882812 8.019531 10.886719 7.984375 10.875 C 7.949219 10.863281 7.914062 10.835938 7.875 10.835938 C 7.839844 10.835938 7.804688 10.863281 7.769531 10.875 C 7.734375 10.886719 7.6875 10.882812 7.660156 10.902344 C 7.628906 10.925781 7.621094 10.964844 7.597656 10.996094 C 7.574219 11.027344 7.535156 11.046875 7.523438 11.082031 C 7.511719 11.113281 7.53125 11.152344 7.53125 11.191406 C 7.53125 11.230469 7.511719 11.269531 7.523438 11.300781 C 7.535156 11.335938 7.574219 11.355469 7.597656 11.386719 C 7.621094 11.417969 7.628906 11.457031 7.660156 11.480469 C 7.6875 11.5 7.734375 11.496094 7.769531 11.507812 C 7.804688 11.519531 7.839844 11.546875 7.875 11.546875 C 7.914062 11.546875 7.949219 11.519531 7.984375 11.507812 C 8.019531 11.496094 8.066406 11.5 8.09375 11.480469 C 8.125 11.457031 8.132812 11.417969 8.15625 11.386719 C 8.175781 11.355469 8.21875 11.335938 8.230469 11.300781 C 8.238281 11.269531 8.222656 11.230469 8.222656 11.191406 "/>
<path style=" stroke:none;fill-rule:nonzero;fill:rgb(20%,20%,20%);fill-opacity:1;" d="M 8.398438 10.347656 C 8.398438 10.308594 8.417969 10.269531 8.40625 10.234375 C 8.394531 10.199219 8.355469 10.179688 8.332031 10.152344 C 8.3125 10.121094 8.300781 10.078125 8.269531 10.058594 C 8.242188 10.035156 8.195312 10.042969 8.160156 10.03125 C 8.125 10.019531 8.09375 9.988281 8.054688 9.988281 C 8.015625 9.988281 7.980469 10.019531 7.949219 10.03125 C 7.910156 10.042969 7.867188 10.035156 7.835938 10.058594 C 7.804688 10.078125 7.796875 10.121094 7.773438 10.152344 C 7.753906 10.179688 7.714844 10.199219 7.699219 10.234375 C 7.691406 10.269531 7.707031 10.308594 7.707031 10.347656 C 7.707031 10.382812 7.691406 10.421875 7.699219 10.457031 C 7.714844 10.488281 7.753906 10.511719 7.773438 10.542969 C 7.796875 10.570312 7.804688 10.613281 7.835938 10.632812 C 7.867188 10.65625 7.910156 10.652344 7.949219 10.660156 C 7.980469 10.671875 8.015625 10.703125 8.054688 10.703125 C 8.09375 10.703125 8.125 10.671875 8.160156 10.660156 C 8.195312 10.652344 8.242188 10.65625 8.269531 10.632812 C 8.300781 10.613281 8.3125 10.570312 8.332031 10.542969 C 8.355469 10.511719 8.394531 10.488281 8.40625 10.457031 C 8.417969 10.421875 8.398438 10.382812 8.398438 10.347656 "/>
<path style=" stroke:none;fill-rule:nonzero;fill:rgb(20%,20%,20%);fill-opacity:1;" d="M 9.109375 10.933594 C 9.109375 10.894531 9.128906 10.855469 9.117188 10.824219 C 9.105469 10.789062 9.066406 10.765625 9.042969 10.738281 C 9.023438 10.707031 9.011719 10.667969 8.984375 10.644531 C 8.953125 10.625 8.910156 10.628906 8.871094 10.617188 C 8.835938 10.605469 8.804688 10.578125 8.765625 10.578125 C 8.726562 10.578125 8.691406 10.605469 8.660156 10.617188 C 8.621094 10.628906 8.578125 10.625 8.546875 10.644531 C 8.515625 10.667969 8.507812 10.707031 8.484375 10.738281 C 8.464844 10.765625 8.425781 10.789062 8.414062 10.824219 C 8.402344 10.855469 8.417969 10.894531 8.417969 10.933594 C 8.417969 10.972656 8.402344 11.011719 8.414062 11.042969 C 8.425781 11.078125 8.464844 11.097656 8.484375 11.128906 C 8.507812 11.15625 8.515625 11.199219 8.546875 11.222656 C 8.578125 11.242188 8.621094 11.238281 8.660156 11.25 C 8.691406 11.261719 8.726562 11.289062 8.765625 11.289062 C 8.804688 11.289062 8.835938 11.261719 8.871094 11.25 C 8.910156 11.238281 8.953125 11.242188 8.984375 11.222656 C 9.011719 11.199219 9.023438 11.15625 9.042969 11.128906 C 9.066406 11.097656 9.105469 11.078125 9.117188 11.042969 C 9.128906 11.011719 9.109375 10.972656 9.109375 10.933594 "/>
<path style=" stroke:none;fill-rule:nonzero;fill:rgb(100%,74.901962%,12.54902%);fill-opacity:1;" d="M 7.449219 3.695312 L 7.449219 5.761719 L 6.585938 5.402344 L 5.71875 5.761719 L 5.71875 3.695312 L 7.449219 3.695312 "/>
<path style=" stroke:none;fill-rule:nonzero;fill:rgb(97.647059%,76.862746%,25.098041%);fill-opacity:1;" d="M 5.644531 3.621094 L 5.644531 5.871094 L 6.582031 5.480469 L 7.519531 5.871094 L 7.519531 3.621094 L 5.644531 3.621094 M 7.449219 3.972656 L 7.449219 5.761719 L 6.585938 5.402344 L 5.71875 5.761719 L 5.71875 3.695312 L 7.449219 3.695312 L 7.449219 3.972656 "/>
<path style=" stroke:none;fill-rule:nonzero;fill:rgb(0%,0%,0%);fill-opacity:1;" d="M 6.449219 4.0625 C 6.429688 4.0625 6.421875 4.070312 6.421875 4.089844 L 6.421875 4.21875 C 6.421875 4.234375 6.433594 4.242188 6.449219 4.242188 L 6.535156 4.230469 L 6.535156 5.074219 C 6.535156 5.085938 6.539062 5.09375 6.554688 5.09375 L 6.695312 5.09375 C 6.707031 5.09375 6.714844 5.085938 6.714844 5.074219 L 6.714844 4.050781 C 6.714844 4.035156 6.707031 4.027344 6.695312 4.027344 Z M 6.449219 4.0625 "/>
<path style=" stroke:none;fill-rule:nonzero;fill:rgb(100%,74.901962%,12.54902%);fill-opacity:1;" d="M 5.339844 6.96875 L 5.339844 9.035156 L 4.472656 8.675781 L 3.605469 9.035156 L 3.605469 6.96875 L 5.339844 6.96875 "/>
<path style=" stroke:none;fill-rule:nonzero;fill:rgb(97.647059%,76.862746%,25.098041%);fill-opacity:1;" d="M 3.535156 6.894531 L 3.535156 9.144531 L 4.472656 8.753906 L 5.410156 9.144531 L 5.410156 6.894531 L 3.535156 6.894531 M 5.339844 7.242188 L 5.339844 9.035156 L 4.472656 8.675781 L 3.605469 9.035156 L 3.605469 6.96875 L 5.339844 6.96875 L 5.339844 7.242188 "/>
<path style=" stroke:none;fill-rule:nonzero;fill:rgb(0%,0%,0%);fill-opacity:1;" d="M 4.695312 7.996094 C 4.71875 7.980469 4.730469 7.96875 4.730469 7.945312 L 4.730469 7.628906 C 4.730469 7.503906 4.660156 7.4375 4.539062 7.4375 L 4.386719 7.4375 C 4.261719 7.4375 4.195312 7.503906 4.195312 7.628906 L 4.195312 7.773438 C 4.195312 7.785156 4.203125 7.792969 4.21875 7.792969 L 4.355469 7.792969 C 4.371094 7.792969 4.378906 7.785156 4.378906 7.773438 L 4.378906 7.667969 C 4.378906 7.632812 4.394531 7.613281 4.429688 7.613281 L 4.496094 7.613281 C 4.527344 7.613281 4.546875 7.632812 4.546875 7.667969 L 4.546875 7.863281 L 4.230469 8.035156 C 4.207031 8.050781 4.195312 8.058594 4.195312 8.085938 L 4.195312 8.476562 C 4.195312 8.496094 4.207031 8.503906 4.222656 8.503906 L 4.703125 8.503906 C 4.71875 8.503906 4.730469 8.496094 4.730469 8.476562 L 4.730469 8.273438 C 4.730469 8.257812 4.71875 8.246094 4.703125 8.246094 L 4.574219 8.246094 C 4.558594 8.246094 4.546875 8.257812 4.546875 8.273438 L 4.546875 8.328125 L 4.40625 8.328125 C 4.386719 8.328125 4.378906 8.320312 4.378906 8.300781 L 4.378906 8.1875 C 4.378906 8.171875 4.382812 8.164062 4.398438 8.152344 Z M 4.695312 7.996094 "/>
</g>
</svg>
