<?xml version="1.0" encoding="UTF-8"?>
<svg xmlns="http://www.w3.org/2000/svg" xmlns:xlink="http://www.w3.org/1999/xlink" width="16" height="16" viewBox="0 0 16 16" version="1.1">
<g id="surface1">
<path style="fill-rule:nonzero;fill:rgb(83.137256%,83.137256%,83.137256%);fill-opacity:1;stroke-width:0.97833;stroke-linecap:butt;stroke-linejoin:miter;stroke:rgb(0%,0%,0%);stroke-opacity:1;stroke-miterlimit:4;" d="M 26.75 15 L 103.25 15 C 109.71875 15 115 19.0625 115 24.09375 L 115 105.90625 C 115 110.9375 109.71875 115 103.25 115 L 26.75 115 C 20.28125 115 15 110.9375 15 105.90625 L 15 24.09375 C 15 19.0625 20.28125 15 26.75 15 Z M 26.75 15 " transform="matrix(0.125,0,0,0.125,0,0)"/>
<path style="fill-rule:nonzero;fill:rgb(28.235295%,35.294119%,42.352942%);fill-opacity:1;stroke-width:0.349334;stroke-linecap:butt;stroke-linejoin:miter;stroke:rgb(0%,0%,0%);stroke-opacity:1;stroke-miterlimit:4;" d="M 15 10 L 20 10 C 22.75 10 25 12.25 25 15 L 25 115 C 25 117.75 22.75 120 20 120 L 15 120 C 12.25 120 10 117.75 10 115 L 10 15 C 10 12.25 12.25 10 15 10 Z M 15 10 " transform="matrix(0.125,0,0,0.125,0,0)"/>
<path style=" stroke:none;fill-rule:nonzero;fill:rgb(83.137256%,55.686277%,8.235294%);fill-opacity:1;" d="M 3.75 4.375 L 5 4.375 L 5 6.25 L 3.75 6.25 Z M 3.75 4.375 "/>
<path style=" stroke:none;fill-rule:nonzero;fill:rgb(83.137256%,55.686277%,8.235294%);fill-opacity:1;" d="M 7.328125 4.375 L 11.421875 4.375 C 11.671875 4.375 11.875 4.65625 11.875 5 L 11.875 5.625 C 11.875 5.96875 11.671875 6.25 11.421875 6.25 L 7.328125 6.25 C 7.078125 6.25 6.875 5.96875 6.875 5.625 L 6.875 5 C 6.875 4.65625 7.078125 4.375 7.328125 4.375 Z M 7.328125 4.375 "/>
<path style=" stroke:none;fill-rule:nonzero;fill:rgb(95.294118%,45.09804%,16.078432%);fill-opacity:1;" d="M 3.75 7.5 L 5 7.5 L 5 9.375 L 3.75 9.375 Z M 3.75 7.5 "/>
<path style=" stroke:none;fill-rule:nonzero;fill:rgb(95.294118%,45.09804%,16.078432%);fill-opacity:1;" d="M 5.625 8.125 L 8.125 8.125 C 8.46875 8.125 8.75 8.265625 8.75 8.4375 C 8.75 8.609375 8.46875 8.75 8.125 8.75 L 5.625 8.75 C 5.28125 8.75 5 8.609375 5 8.4375 C 5 8.265625 5.28125 8.125 5.625 8.125 Z M 5.625 8.125 "/>
<path style=" stroke:none;fill-rule:nonzero;fill:rgb(67.843139%,37.254903%,0%);fill-opacity:1;" d="M 5 11.25 L 7.5 11.25 C 7.84375 11.25 8.125 11.390625 8.125 11.5625 C 8.125 11.734375 7.84375 11.875 7.5 11.875 L 5 11.875 C 4.65625 11.875 4.375 11.734375 4.375 11.5625 C 4.375 11.390625 4.65625 11.25 5 11.25 Z M 5 11.25 "/>
<path style=" stroke:none;fill-rule:nonzero;fill:rgb(95.294118%,45.09804%,16.078432%);fill-opacity:1;" d="M 7.214844 7.5 L 10.285156 7.5 C 10.472656 7.5 10.625 7.78125 10.625 8.125 L 10.625 8.75 C 10.625 9.09375 10.472656 9.375 10.285156 9.375 L 7.214844 9.375 C 7.027344 9.375 6.875 9.09375 6.875 8.75 L 6.875 8.125 C 6.875 7.78125 7.027344 7.5 7.214844 7.5 Z M 7.214844 7.5 "/>
<path style=" stroke:none;fill-rule:nonzero;fill:rgb(67.843139%,37.254903%,0%);fill-opacity:1;" d="M 3.75 10.625 L 5 10.625 L 5 12.5 L 3.75 12.5 Z M 3.75 10.625 "/>
<path style=" stroke:none;fill-rule:nonzero;fill:rgb(67.843139%,37.254903%,0%);fill-opacity:1;" d="M 7.441406 10.625 L 12.558594 10.625 C 12.871094 10.625 13.125 10.90625 13.125 11.25 L 13.125 11.875 C 13.125 12.21875 12.871094 12.5 12.558594 12.5 L 7.441406 12.5 C 7.128906 12.5 6.875 12.21875 6.875 11.875 L 6.875 11.25 C 6.875 10.90625 7.128906 10.625 7.441406 10.625 Z M 7.441406 10.625 "/>
<path style=" stroke:none;fill-rule:nonzero;fill:rgb(83.137256%,55.686277%,8.235294%);fill-opacity:1;" d="M 5 4.375 C 5.34375 4.375 5.625 4.65625 5.625 5 L 5.625 5.625 C 5.625 5.96875 5.34375 6.25 5 6.25 C 4.65625 6.25 4.375 5.96875 4.375 5.625 L 4.375 5 C 4.375 4.65625 4.65625 4.375 5 4.375 Z M 5 4.375 "/>
<path style=" stroke:none;fill-rule:nonzero;fill:rgb(95.294118%,45.09804%,16.078432%);fill-opacity:1;" d="M 5 7.5 C 5.34375 7.5 5.625 7.78125 5.625 8.125 L 5.625 8.75 C 5.625 9.09375 5.34375 9.375 5 9.375 C 4.65625 9.375 4.375 9.09375 4.375 8.75 L 4.375 8.125 C 4.375 7.78125 4.65625 7.5 5 7.5 Z M 5 7.5 "/>
<path style=" stroke:none;fill-rule:nonzero;fill:rgb(67.843139%,37.254903%,0%);fill-opacity:1;" d="M 5 10.625 C 5.34375 10.625 5.625 10.90625 5.625 11.25 L 5.625 11.875 C 5.625 12.21875 5.34375 12.5 5 12.5 C 4.65625 12.5 4.375 12.21875 4.375 11.875 L 4.375 11.25 C 4.375 10.90625 4.65625 10.625 5 10.625 Z M 5 10.625 "/>
<path style=" stroke:none;fill-rule:nonzero;fill:rgb(83.137256%,55.686277%,8.235294%);fill-opacity:1;" d="M 5.625 5 L 8.125 5 C 8.46875 5 8.75 5.140625 8.75 5.3125 C 8.75 5.484375 8.46875 5.625 8.125 5.625 L 5.625 5.625 C 5.28125 5.625 5 5.484375 5 5.3125 C 5 5.140625 5.28125 5 5.625 5 Z M 5.625 5 "/>
<path style=" stroke:none;fill-rule:nonzero;fill:rgb(83.137256%,55.686277%,8.235294%);fill-opacity:1;" d="M 5.625 5 L 8.125 5 C 8.46875 5 8.75 5.140625 8.75 5.3125 C 8.75 5.484375 8.46875 5.625 8.125 5.625 L 5.625 5.625 C 5.28125 5.625 5 5.484375 5 5.3125 C 5 5.140625 5.28125 5 5.625 5 Z M 5.625 5 "/>
</g>
</svg>
