<?xml version="1.0" encoding="UTF-8"?>
<svg xmlns="http://www.w3.org/2000/svg" xmlns:xlink="http://www.w3.org/1999/xlink" width="24" height="24" viewBox="0 0 24 24" version="1.1">
<g id="surface1">
<path style=" stroke:none;fill-rule:nonzero;fill:rgb(26.274511%,83.92157%,70.980394%);fill-opacity:1;" d="M 12.085938 1.09375 C 6.078125 1.09375 1.210938 5.960938 1.210938 11.96875 C 1.210938 17.972656 6.078125 22.84375 12.085938 22.84375 C 18.089844 22.84375 22.960938 17.972656 22.960938 11.96875 C 22.960938 5.960938 18.089844 1.09375 12.085938 1.09375 "/>
<path style=" stroke:none;fill-rule:nonzero;fill:rgb(87.058824%,24.313726%,50.196081%);fill-opacity:1;" d="M 16.082031 9.695312 L 8.121094 9.695312 C 7.679688 9.695312 7.320312 9.328125 7.320312 8.882812 L 7.320312 5.628906 C 7.320312 5.183594 7.679688 4.820312 8.121094 4.820312 L 16.082031 4.820312 C 16.523438 4.820312 16.882812 5.183594 16.882812 5.628906 L 16.882812 8.882812 C 16.882812 9.328125 16.523438 9.695312 16.082031 9.695312 "/>
<path style=" stroke:none;fill-rule:nonzero;fill:rgb(95.294118%,45.09804%,16.078432%);fill-opacity:1;" d="M 18.917969 14.480469 L 5.140625 14.480469 C 4.699219 14.480469 4.339844 14.117188 4.339844 13.671875 L 4.339844 10.417969 C 4.339844 9.96875 4.699219 9.605469 5.140625 9.605469 L 18.917969 9.605469 C 19.355469 9.605469 19.714844 9.96875 19.714844 10.417969 L 19.714844 13.671875 C 19.714844 14.117188 19.355469 14.480469 18.917969 14.480469 "/>
<path style=" stroke:none;fill-rule:nonzero;fill:rgb(97.647059%,76.862746%,25.098041%);fill-opacity:1;" d="M 14.390625 19.269531 L 9.804688 19.269531 C 9.359375 19.269531 9 18.90625 9 18.457031 L 9 15.203125 C 9 14.757812 9.359375 14.394531 9.804688 14.394531 L 14.390625 14.394531 C 14.832031 14.394531 15.1875 14.757812 15.1875 15.203125 L 15.1875 18.457031 C 15.1875 18.90625 14.832031 19.269531 14.390625 19.269531 "/>
<path style=" stroke:none;fill-rule:nonzero;fill:rgb(100%,88.235295%,41.960785%);fill-opacity:1;" d="M 14.1875 5.707031 L 14.644531 6.628906 C 14.652344 6.648438 14.667969 6.65625 14.6875 6.660156 L 15.710938 6.808594 C 15.753906 6.816406 15.773438 6.871094 15.742188 6.898438 L 15 7.617188 C 14.984375 7.632812 14.980469 7.648438 14.984375 7.667969 L 15.15625 8.683594 C 15.164062 8.726562 15.117188 8.765625 15.078125 8.742188 L 14.164062 8.261719 C 14.148438 8.253906 14.128906 8.253906 14.113281 8.261719 L 13.195312 8.742188 C 13.15625 8.765625 13.109375 8.726562 13.117188 8.683594 L 13.292969 7.667969 C 13.296875 7.648438 13.289062 7.632812 13.277344 7.617188 L 12.539062 6.898438 C 12.507812 6.867188 12.523438 6.816406 12.570312 6.808594 L 13.589844 6.660156 C 13.609375 6.65625 13.625 6.648438 13.632812 6.628906 L 14.089844 5.707031 C 14.109375 5.667969 14.167969 5.667969 14.1875 5.707031 Z M 14.1875 5.707031 "/>
<path style=" stroke:none;fill-rule:nonzero;fill:rgb(54.901963%,83.529413%,100%);fill-opacity:1;" d="M 10.445312 10.714844 L 10.726562 11.59375 C 10.734375 11.617188 10.75 11.628906 10.773438 11.628906 L 11.761719 11.621094 C 11.808594 11.621094 11.824219 11.675781 11.789062 11.703125 L 10.984375 12.28125 C 10.96875 12.292969 10.960938 12.3125 10.96875 12.332031 L 11.28125 13.273438 C 11.292969 13.316406 11.246094 13.351562 11.210938 13.324219 L 10.421875 12.746094 C 10.398438 12.730469 10.367188 12.730469 10.34375 12.746094 L 9.558594 13.328125 C 9.523438 13.351562 9.472656 13.316406 9.488281 13.273438 L 9.800781 12.335938 C 9.808594 12.316406 9.800781 12.292969 9.785156 12.28125 L 8.980469 11.707031 C 8.945312 11.679688 8.960938 11.625 9.007812 11.625 L 9.996094 11.628906 C 10.015625 11.628906 10.035156 11.617188 10.042969 11.597656 L 10.320312 10.714844 C 10.34375 10.648438 10.425781 10.648438 10.445312 10.714844 Z M 10.445312 10.714844 "/>
<path style=" stroke:none;fill-rule:nonzero;fill:rgb(54.901963%,83.529413%,100%);fill-opacity:1;" d="M 13.753906 10.714844 L 14.035156 11.59375 C 14.039062 11.617188 14.058594 11.628906 14.078125 11.628906 L 15.070312 11.621094 C 15.113281 11.621094 15.132812 11.675781 15.097656 11.703125 L 14.289062 12.28125 C 14.273438 12.292969 14.265625 12.3125 14.273438 12.332031 L 14.585938 13.273438 C 14.601562 13.316406 14.554688 13.351562 14.519531 13.324219 L 13.730469 12.746094 C 13.703125 12.730469 13.675781 12.730469 13.652344 12.746094 L 12.863281 13.328125 C 12.828125 13.351562 12.78125 13.316406 12.796875 13.273438 L 13.109375 12.335938 C 13.117188 12.316406 13.109375 12.292969 13.09375 12.28125 L 12.285156 11.707031 C 12.25 11.679688 12.269531 11.625 12.3125 11.625 L 13.304688 11.628906 C 13.324219 11.628906 13.34375 11.617188 13.347656 11.597656 L 13.625 10.714844 C 13.648438 10.648438 13.734375 10.648438 13.753906 10.714844 Z M 13.753906 10.714844 "/>
<path style=" stroke:none;fill-rule:nonzero;fill:rgb(54.901963%,83.529413%,100%);fill-opacity:1;" d="M 17.089844 10.714844 L 17.367188 11.59375 C 17.375 11.617188 17.394531 11.628906 17.414062 11.628906 L 18.40625 11.621094 C 18.449219 11.621094 18.46875 11.675781 18.429688 11.703125 L 17.625 12.28125 C 17.609375 12.292969 17.601562 12.3125 17.609375 12.332031 L 17.921875 13.273438 C 17.9375 13.316406 17.890625 13.351562 17.851562 13.324219 L 17.0625 12.746094 C 17.039062 12.730469 17.007812 12.730469 16.984375 12.746094 L 16.199219 13.328125 C 16.164062 13.351562 16.113281 13.316406 16.128906 13.273438 L 16.445312 12.335938 C 16.449219 12.316406 16.445312 12.292969 16.429688 12.28125 L 15.621094 11.707031 C 15.585938 11.679688 15.601562 11.625 15.648438 11.625 L 16.640625 11.628906 C 16.65625 11.628906 16.675781 11.617188 16.683594 11.597656 L 16.960938 10.714844 C 16.984375 10.648438 17.070312 10.648438 17.089844 10.714844 Z M 17.089844 10.714844 "/>
<path style=" stroke:none;fill-rule:nonzero;fill:rgb(5.490196%,7.843138%,12.156863%);fill-opacity:1;" d="M 14.136719 17.523438 L 14.136719 16.058594 L 9.824219 16.058594 L 9.824219 16.097656 L 9.828125 17.523438 C 9.828125 18.238281 10.792969 18.851562 11.984375 18.851562 C 13.167969 18.855469 14.136719 18.242188 14.136719 17.523438 M 11.980469 17.46875 L 11.992188 17.46875 L 11.980469 17.46875 "/>
<path style=" stroke:none;fill-rule:nonzero;fill:rgb(40.000001%,47.058824%,52.156866%);fill-opacity:1;" d="M 12.839844 17.355469 L 12.9375 17.328125 C 12.96875 17.316406 13 17.304688 13.027344 17.292969 L 13.03125 17.292969 C 13.0625 17.285156 13.089844 17.273438 13.121094 17.257812 C 13.152344 17.246094 13.179688 17.234375 13.210938 17.222656 C 13.238281 17.210938 13.269531 17.199219 13.296875 17.183594 C 13.324219 17.171875 13.351562 17.15625 13.375 17.140625 L 13.378906 17.140625 C 13.40625 17.125 13.429688 17.113281 13.457031 17.097656 C 13.480469 17.082031 13.507812 17.070312 13.53125 17.050781 C 13.898438 16.808594 14.128906 16.480469 14.136719 16.117188 L 14.136719 16.097656 C 14.136719 15.339844 13.167969 14.726562 11.976562 14.726562 C 10.789062 14.726562 9.820312 15.339844 9.820312 16.097656 L 9.820312 16.117188 C 9.835938 16.867188 10.792969 17.46875 11.976562 17.46875 C 12.285156 17.46875 12.578125 17.429688 12.839844 17.355469 "/>
<path style=" stroke:none;fill-rule:nonzero;fill:rgb(20%,20%,20%);fill-opacity:1;" d="M 11.257812 16.054688 C 11.257812 15.996094 11.285156 15.9375 11.269531 15.886719 C 11.25 15.835938 11.191406 15.804688 11.160156 15.761719 C 11.125 15.71875 11.113281 15.652344 11.066406 15.621094 C 11.023438 15.589844 10.953125 15.597656 10.898438 15.578125 C 10.847656 15.5625 10.796875 15.519531 10.742188 15.519531 C 10.679688 15.519531 10.632812 15.5625 10.578125 15.578125 C 10.523438 15.59375 10.457031 15.589844 10.414062 15.621094 C 10.367188 15.652344 10.351562 15.71875 10.320312 15.761719 C 10.289062 15.804688 10.226562 15.835938 10.210938 15.886719 C 10.195312 15.9375 10.222656 15.996094 10.222656 16.054688 C 10.222656 16.109375 10.195312 16.167969 10.210938 16.21875 C 10.226562 16.269531 10.289062 16.304688 10.320312 16.34375 C 10.351562 16.390625 10.367188 16.453125 10.414062 16.484375 C 10.457031 16.515625 10.523438 16.507812 10.578125 16.527344 C 10.632812 16.542969 10.679688 16.585938 10.738281 16.585938 C 10.796875 16.585938 10.847656 16.542969 10.898438 16.527344 C 10.953125 16.507812 11.023438 16.515625 11.066406 16.484375 C 11.113281 16.453125 11.125 16.390625 11.160156 16.34375 C 11.191406 16.304688 11.25 16.269531 11.269531 16.21875 C 11.285156 16.167969 11.257812 16.109375 11.257812 16.054688 "/>
<path style=" stroke:none;fill-rule:nonzero;fill:rgb(20%,20%,20%);fill-opacity:1;" d="M 12.332031 16.789062 C 12.332031 16.730469 12.359375 16.671875 12.34375 16.621094 C 12.328125 16.570312 12.265625 16.539062 12.234375 16.492188 C 12.199219 16.449219 12.1875 16.386719 12.140625 16.355469 C 12.097656 16.324219 12.03125 16.328125 11.976562 16.3125 C 11.921875 16.296875 11.875 16.253906 11.8125 16.253906 C 11.757812 16.253906 11.707031 16.296875 11.65625 16.3125 C 11.601562 16.328125 11.53125 16.324219 11.488281 16.355469 C 11.441406 16.386719 11.429688 16.449219 11.394531 16.492188 C 11.363281 16.539062 11.304688 16.570312 11.285156 16.621094 C 11.269531 16.671875 11.296875 16.730469 11.296875 16.789062 C 11.296875 16.84375 11.269531 16.902344 11.285156 16.953125 C 11.304688 17.003906 11.363281 17.035156 11.394531 17.078125 C 11.429688 17.125 11.441406 17.1875 11.488281 17.21875 C 11.53125 17.25 11.601562 17.242188 11.65625 17.261719 C 11.707031 17.277344 11.757812 17.320312 11.8125 17.320312 C 11.871094 17.320312 11.921875 17.277344 11.976562 17.261719 C 12.027344 17.242188 12.097656 17.25 12.140625 17.21875 C 12.1875 17.1875 12.199219 17.125 12.234375 17.078125 C 12.265625 17.035156 12.328125 17.003906 12.34375 16.953125 C 12.359375 16.902344 12.332031 16.84375 12.332031 16.789062 "/>
<path style=" stroke:none;fill-rule:nonzero;fill:rgb(20%,20%,20%);fill-opacity:1;" d="M 12.597656 15.519531 C 12.597656 15.460938 12.625 15.402344 12.609375 15.351562 C 12.59375 15.300781 12.53125 15.269531 12.5 15.226562 C 12.46875 15.179688 12.453125 15.117188 12.40625 15.085938 C 12.363281 15.054688 12.296875 15.0625 12.242188 15.046875 C 12.1875 15.027344 12.140625 14.984375 12.082031 14.984375 C 12.023438 14.984375 11.972656 15.027344 11.921875 15.046875 C 11.867188 15.0625 11.796875 15.054688 11.753906 15.085938 C 11.707031 15.117188 11.695312 15.179688 11.664062 15.226562 C 11.628906 15.269531 11.570312 15.300781 11.550781 15.351562 C 11.535156 15.402344 11.5625 15.460938 11.5625 15.519531 C 11.5625 15.574219 11.535156 15.632812 11.550781 15.683594 C 11.570312 15.734375 11.628906 15.765625 11.660156 15.8125 C 11.695312 15.855469 11.707031 15.917969 11.753906 15.949219 C 11.796875 15.984375 11.867188 15.976562 11.921875 15.992188 C 11.972656 16.007812 12.023438 16.054688 12.082031 16.054688 C 12.140625 16.054688 12.1875 16.007812 12.242188 15.992188 C 12.296875 15.976562 12.363281 15.984375 12.40625 15.949219 C 12.453125 15.917969 12.46875 15.855469 12.5 15.8125 C 12.53125 15.765625 12.59375 15.734375 12.609375 15.683594 C 12.625 15.632812 12.597656 15.574219 12.597656 15.519531 "/>
<path style=" stroke:none;fill-rule:nonzero;fill:rgb(20%,20%,20%);fill-opacity:1;" d="M 13.664062 16.398438 C 13.664062 16.34375 13.695312 16.285156 13.675781 16.234375 C 13.660156 16.183594 13.601562 16.148438 13.566406 16.109375 C 13.535156 16.0625 13.519531 16 13.476562 15.96875 C 13.429688 15.9375 13.363281 15.945312 13.308594 15.925781 C 13.257812 15.910156 13.207031 15.867188 13.148438 15.867188 C 13.089844 15.867188 13.039062 15.910156 12.988281 15.925781 C 12.933594 15.945312 12.867188 15.9375 12.820312 15.96875 C 12.773438 16 12.761719 16.0625 12.726562 16.109375 C 12.695312 16.148438 12.636719 16.183594 12.617188 16.234375 C 12.601562 16.285156 12.628906 16.34375 12.628906 16.398438 C 12.628906 16.457031 12.601562 16.515625 12.617188 16.566406 C 12.636719 16.617188 12.695312 16.648438 12.726562 16.691406 C 12.761719 16.734375 12.773438 16.800781 12.820312 16.832031 C 12.867188 16.863281 12.933594 16.855469 12.988281 16.875 C 13.039062 16.890625 13.089844 16.933594 13.148438 16.933594 C 13.207031 16.933594 13.257812 16.890625 13.308594 16.875 C 13.363281 16.855469 13.429688 16.863281 13.476562 16.832031 C 13.519531 16.800781 13.535156 16.734375 13.566406 16.691406 C 13.601562 16.648438 13.660156 16.617188 13.675781 16.566406 C 13.695312 16.515625 13.664062 16.457031 13.664062 16.398438 "/>
<path style=" stroke:none;fill-rule:nonzero;fill:rgb(100%,74.901962%,12.54902%);fill-opacity:1;" d="M 11.175781 5.542969 L 11.175781 8.644531 L 9.875 8.101562 L 8.578125 8.644531 L 8.578125 5.542969 L 11.175781 5.542969 "/>
<path style=" stroke:none;fill-rule:nonzero;fill:rgb(97.647059%,76.862746%,25.098041%);fill-opacity:1;" d="M 8.46875 5.433594 L 8.46875 8.808594 L 9.875 8.222656 L 11.28125 8.808594 L 11.28125 5.433594 L 8.46875 5.433594 M 11.175781 5.957031 L 11.175781 8.644531 L 9.875 8.101562 L 8.578125 8.644531 L 8.578125 5.542969 L 11.175781 5.542969 L 11.175781 5.957031 "/>
<path style=" stroke:none;fill-rule:nonzero;fill:rgb(0%,0%,0%);fill-opacity:1;" d="M 9.671875 6.09375 C 9.648438 6.09375 9.632812 6.109375 9.632812 6.132812 L 9.632812 6.324219 C 9.632812 6.351562 9.652344 6.367188 9.675781 6.363281 L 9.800781 6.347656 L 9.800781 7.609375 C 9.800781 7.628906 9.8125 7.640625 9.832031 7.640625 L 10.039062 7.640625 C 10.0625 7.640625 10.074219 7.628906 10.074219 7.609375 L 10.074219 6.074219 C 10.074219 6.054688 10.0625 6.042969 10.039062 6.042969 Z M 9.671875 6.09375 "/>
<path style=" stroke:none;fill-rule:nonzero;fill:rgb(100%,74.901962%,12.54902%);fill-opacity:1;" d="M 8.007812 10.453125 L 8.007812 13.554688 L 6.710938 13.011719 L 5.410156 13.554688 L 5.410156 10.453125 L 8.007812 10.453125 "/>
<path style=" stroke:none;fill-rule:nonzero;fill:rgb(97.647059%,76.862746%,25.098041%);fill-opacity:1;" d="M 5.300781 10.34375 L 5.300781 13.71875 L 6.707031 13.128906 L 8.113281 13.71875 L 8.113281 10.34375 L 5.300781 10.34375 M 8.007812 10.863281 L 8.007812 13.554688 L 6.710938 13.011719 L 5.410156 13.554688 L 5.410156 10.453125 L 8.007812 10.453125 L 8.007812 10.863281 "/>
<path style=" stroke:none;fill-rule:nonzero;fill:rgb(0%,0%,0%);fill-opacity:1;" d="M 7.039062 11.992188 C 7.078125 11.972656 7.09375 11.957031 7.09375 11.917969 L 7.09375 11.445312 C 7.09375 11.257812 6.992188 11.15625 6.808594 11.15625 L 6.582031 11.15625 C 6.394531 11.15625 6.292969 11.257812 6.292969 11.445312 L 6.292969 11.65625 C 6.292969 11.675781 6.304688 11.6875 6.328125 11.6875 L 6.535156 11.6875 C 6.554688 11.6875 6.566406 11.675781 6.566406 11.65625 L 6.566406 11.5 C 6.566406 11.449219 6.59375 11.421875 6.648438 11.421875 L 6.742188 11.421875 C 6.792969 11.421875 6.824219 11.449219 6.824219 11.5 L 6.824219 11.796875 L 6.347656 12.054688 C 6.308594 12.074219 6.292969 12.089844 6.292969 12.128906 L 6.292969 12.71875 C 6.292969 12.742188 6.308594 12.757812 6.335938 12.757812 L 7.054688 12.757812 C 7.082031 12.757812 7.09375 12.742188 7.09375 12.71875 L 7.09375 12.410156 C 7.09375 12.386719 7.082031 12.371094 7.054688 12.371094 L 6.863281 12.371094 C 6.835938 12.371094 6.824219 12.386719 6.824219 12.410156 L 6.824219 12.492188 L 6.605469 12.492188 C 6.582031 12.492188 6.566406 12.480469 6.566406 12.453125 L 6.566406 12.28125 C 6.566406 12.257812 6.574219 12.242188 6.59375 12.230469 Z M 7.039062 11.992188 "/>
</g>
</svg>
