<?xml version="1.0" encoding="UTF-8"?>
<svg xmlns="http://www.w3.org/2000/svg" xmlns:xlink="http://www.w3.org/1999/xlink" width="24" height="24" viewBox="0 0 24 24" version="1.1">
<g id="surface1">
<path style="fill-rule:nonzero;fill:rgb(83.137256%,83.137256%,83.137256%);fill-opacity:1;stroke-width:0.97833;stroke-linecap:butt;stroke-linejoin:miter;stroke:rgb(0%,0%,0%);stroke-opacity:1;stroke-miterlimit:4;" d="M 26.770833 15 L 103.229167 15 C 109.729167 15 115 19.0625 115 24.083333 L 115 105.916667 C 115 110.9375 109.729167 115 103.229167 115 L 26.770833 115 C 20.270833 115 15 110.9375 15 105.916667 L 15 24.083333 C 15 19.0625 20.270833 15 26.770833 15 Z M 26.770833 15 " transform="matrix(0.1875,0,0,0.1875,0,0)"/>
<path style="fill-rule:nonzero;fill:rgb(28.235295%,35.294119%,42.352942%);fill-opacity:1;stroke-width:0.349334;stroke-linecap:butt;stroke-linejoin:miter;stroke:rgb(0%,0%,0%);stroke-opacity:1;stroke-miterlimit:4;" d="M 15 10 L 20 10 C 22.770833 10 25 12.229167 25 15 L 25 115 C 25 117.770833 22.770833 120 20 120 L 15 120 C 12.229167 120 10 117.770833 10 115 L 10 15 C 10 12.229167 12.229167 10 15 10 Z M 15 10 " transform="matrix(0.1875,0,0,0.1875,0,0)"/>
<path style=" stroke:none;fill-rule:nonzero;fill:rgb(83.137256%,55.686277%,8.235294%);fill-opacity:1;" d="M 5.625 6.5625 L 7.5 6.5625 L 7.5 9.375 L 5.625 9.375 Z M 5.625 6.5625 "/>
<path style=" stroke:none;fill-rule:nonzero;fill:rgb(83.137256%,55.686277%,8.235294%);fill-opacity:1;" d="M 10.996094 6.5625 L 17.128906 6.5625 C 17.507812 6.5625 17.8125 6.980469 17.8125 7.5 L 17.8125 8.4375 C 17.8125 8.957031 17.507812 9.375 17.128906 9.375 L 10.996094 9.375 C 10.617188 9.375 10.3125 8.957031 10.3125 8.4375 L 10.3125 7.5 C 10.3125 6.980469 10.617188 6.5625 10.996094 6.5625 Z M 10.996094 6.5625 "/>
<path style=" stroke:none;fill-rule:nonzero;fill:rgb(95.294118%,45.09804%,16.078432%);fill-opacity:1;" d="M 5.625 11.25 L 7.5 11.25 L 7.5 14.0625 L 5.625 14.0625 Z M 5.625 11.25 "/>
<path style=" stroke:none;fill-rule:nonzero;fill:rgb(95.294118%,45.09804%,16.078432%);fill-opacity:1;" d="M 8.4375 12.1875 L 12.1875 12.1875 C 12.707031 12.1875 13.125 12.398438 13.125 12.65625 C 13.125 12.914062 12.707031 13.125 12.1875 13.125 L 8.4375 13.125 C 7.917969 13.125 7.5 12.914062 7.5 12.65625 C 7.5 12.398438 7.917969 12.1875 8.4375 12.1875 Z M 8.4375 12.1875 "/>
<path style=" stroke:none;fill-rule:nonzero;fill:rgb(67.843139%,37.254903%,0%);fill-opacity:1;" d="M 7.5 16.875 L 11.25 16.875 C 11.769531 16.875 12.1875 17.085938 12.1875 17.34375 C 12.1875 17.601562 11.769531 17.8125 11.25 17.8125 L 7.5 17.8125 C 6.980469 17.8125 6.5625 17.601562 6.5625 17.34375 C 6.5625 17.085938 6.980469 16.875 7.5 16.875 Z M 7.5 16.875 "/>
<path style=" stroke:none;fill-rule:nonzero;fill:rgb(95.294118%,45.09804%,16.078432%);fill-opacity:1;" d="M 10.824219 11.25 L 15.425781 11.25 C 15.707031 11.25 15.9375 11.667969 15.9375 12.1875 L 15.9375 13.125 C 15.9375 13.644531 15.707031 14.0625 15.425781 14.0625 L 10.824219 14.0625 C 10.542969 14.0625 10.3125 13.644531 10.3125 13.125 L 10.3125 12.1875 C 10.3125 11.667969 10.542969 11.25 10.824219 11.25 Z M 10.824219 11.25 "/>
<path style=" stroke:none;fill-rule:nonzero;fill:rgb(67.843139%,37.254903%,0%);fill-opacity:1;" d="M 5.625 15.9375 L 7.5 15.9375 L 7.5 18.75 L 5.625 18.75 Z M 5.625 15.9375 "/>
<path style=" stroke:none;fill-rule:nonzero;fill:rgb(67.843139%,37.254903%,0%);fill-opacity:1;" d="M 11.164062 15.9375 L 18.835938 15.9375 C 19.304688 15.9375 19.6875 16.355469 19.6875 16.875 L 19.6875 17.8125 C 19.6875 18.332031 19.304688 18.75 18.835938 18.75 L 11.164062 18.75 C 10.695312 18.75 10.3125 18.332031 10.3125 17.8125 L 10.3125 16.875 C 10.3125 16.355469 10.695312 15.9375 11.164062 15.9375 Z M 11.164062 15.9375 "/>
<path style=" stroke:none;fill-rule:nonzero;fill:rgb(83.137256%,55.686277%,8.235294%);fill-opacity:1;" d="M 7.5 6.5625 C 8.019531 6.5625 8.4375 6.980469 8.4375 7.5 L 8.4375 8.4375 C 8.4375 8.957031 8.019531 9.375 7.5 9.375 C 6.980469 9.375 6.5625 8.957031 6.5625 8.4375 L 6.5625 7.5 C 6.5625 6.980469 6.980469 6.5625 7.5 6.5625 Z M 7.5 6.5625 "/>
<path style=" stroke:none;fill-rule:nonzero;fill:rgb(95.294118%,45.09804%,16.078432%);fill-opacity:1;" d="M 7.5 11.25 C 8.019531 11.25 8.4375 11.667969 8.4375 12.1875 L 8.4375 13.125 C 8.4375 13.644531 8.019531 14.0625 7.5 14.0625 C 6.980469 14.0625 6.5625 13.644531 6.5625 13.125 L 6.5625 12.1875 C 6.5625 11.667969 6.980469 11.25 7.5 11.25 Z M 7.5 11.25 "/>
<path style=" stroke:none;fill-rule:nonzero;fill:rgb(67.843139%,37.254903%,0%);fill-opacity:1;" d="M 7.5 15.9375 C 8.019531 15.9375 8.4375 16.355469 8.4375 16.875 L 8.4375 17.8125 C 8.4375 18.332031 8.019531 18.75 7.5 18.75 C 6.980469 18.75 6.5625 18.332031 6.5625 17.8125 L 6.5625 16.875 C 6.5625 16.355469 6.980469 15.9375 7.5 15.9375 Z M 7.5 15.9375 "/>
<path style=" stroke:none;fill-rule:nonzero;fill:rgb(83.137256%,55.686277%,8.235294%);fill-opacity:1;" d="M 8.4375 7.5 L 12.1875 7.5 C 12.707031 7.5 13.125 7.710938 13.125 7.96875 C 13.125 8.226562 12.707031 8.4375 12.1875 8.4375 L 8.4375 8.4375 C 7.917969 8.4375 7.5 8.226562 7.5 7.96875 C 7.5 7.710938 7.917969 7.5 8.4375 7.5 Z M 8.4375 7.5 "/>
<path style=" stroke:none;fill-rule:nonzero;fill:rgb(83.137256%,55.686277%,8.235294%);fill-opacity:1;" d="M 8.4375 7.5 L 12.1875 7.5 C 12.707031 7.5 13.125 7.710938 13.125 7.96875 C 13.125 8.226562 12.707031 8.4375 12.1875 8.4375 L 8.4375 8.4375 C 7.917969 8.4375 7.5 8.226562 7.5 7.96875 C 7.5 7.710938 7.917969 7.5 8.4375 7.5 Z M 8.4375 7.5 "/>
</g>
</svg>
