<?xml version="1.0" encoding="UTF-8"?>
<svg xmlns="http://www.w3.org/2000/svg" xmlns:xlink="http://www.w3.org/1999/xlink" width="32" height="32" viewBox="0 0 32 32" version="1.1">
<g id="surface1">
<path style=" stroke:none;fill-rule:nonzero;fill:rgb(26.274511%,83.92157%,70.980394%);fill-opacity:1;" d="M 16.113281 1.457031 C 8.105469 1.457031 1.613281 7.949219 1.613281 15.957031 C 1.613281 23.964844 8.105469 30.457031 16.113281 30.457031 C 24.121094 30.457031 30.613281 23.964844 30.613281 15.957031 C 30.613281 7.949219 24.121094 1.457031 16.113281 1.457031 "/>
<path style=" stroke:none;fill-rule:nonzero;fill:rgb(87.058824%,24.313726%,50.196081%);fill-opacity:1;" d="M 21.445312 12.925781 L 10.828125 12.925781 C 10.238281 12.925781 9.761719 12.441406 9.761719 11.84375 L 9.761719 7.507812 C 9.761719 6.910156 10.238281 6.425781 10.828125 6.425781 L 21.445312 6.425781 C 22.03125 6.425781 22.511719 6.910156 22.511719 7.507812 L 22.511719 11.84375 C 22.511719 12.441406 22.03125 12.925781 21.445312 12.925781 "/>
<path style=" stroke:none;fill-rule:nonzero;fill:rgb(95.294118%,45.09804%,16.078432%);fill-opacity:1;" d="M 25.222656 19.308594 L 6.851562 19.308594 C 6.265625 19.308594 5.789062 18.824219 5.789062 18.226562 L 5.789062 13.890625 C 5.789062 13.292969 6.265625 12.808594 6.851562 12.808594 L 25.222656 12.808594 C 25.808594 12.808594 26.289062 13.292969 26.289062 13.890625 L 26.289062 18.226562 C 26.289062 18.824219 25.808594 19.308594 25.222656 19.308594 "/>
<path style=" stroke:none;fill-rule:nonzero;fill:rgb(97.647059%,76.862746%,25.098041%);fill-opacity:1;" d="M 19.1875 25.691406 L 13.070312 25.691406 C 12.480469 25.691406 12.003906 25.207031 12.003906 24.609375 L 12.003906 20.273438 C 12.003906 19.675781 12.480469 19.191406 13.070312 19.191406 L 19.1875 19.191406 C 19.773438 19.191406 20.253906 19.675781 20.253906 20.273438 L 20.253906 24.609375 C 20.253906 25.207031 19.773438 25.691406 19.1875 25.691406 "/>
<path style=" stroke:none;fill-rule:nonzero;fill:rgb(100%,88.235295%,41.960785%);fill-opacity:1;" d="M 18.917969 7.609375 L 19.527344 8.839844 C 19.535156 8.863281 19.558594 8.878906 19.582031 8.878906 L 20.945312 9.078125 C 21.003906 9.085938 21.03125 9.160156 20.988281 9.199219 L 20 10.160156 C 19.980469 10.175781 19.976562 10.199219 19.980469 10.222656 L 20.210938 11.578125 C 20.21875 11.636719 20.15625 11.683594 20.105469 11.65625 L 18.886719 11.015625 C 18.863281 11.003906 18.839844 11.003906 18.816406 11.015625 L 17.597656 11.65625 C 17.542969 11.683594 17.480469 11.636719 17.492188 11.578125 L 17.722656 10.222656 C 17.726562 10.199219 17.71875 10.179688 17.703125 10.160156 L 16.71875 9.199219 C 16.675781 9.15625 16.699219 9.085938 16.757812 9.078125 L 18.121094 8.878906 C 18.144531 8.878906 18.164062 8.863281 18.175781 8.839844 L 18.785156 7.609375 C 18.8125 7.554688 18.890625 7.554688 18.917969 7.609375 Z M 18.917969 7.609375 "/>
<path style=" stroke:none;fill-rule:nonzero;fill:rgb(54.901963%,83.529413%,100%);fill-opacity:1;" d="M 13.929688 14.285156 L 14.304688 15.460938 C 14.3125 15.488281 14.335938 15.503906 14.363281 15.503906 L 15.683594 15.496094 C 15.742188 15.496094 15.765625 15.570312 15.71875 15.605469 L 14.644531 16.375 C 14.621094 16.390625 14.613281 16.417969 14.621094 16.441406 L 15.042969 17.695312 C 15.058594 17.753906 14.996094 17.800781 14.949219 17.765625 L 13.898438 16.996094 C 13.863281 16.972656 13.824219 16.972656 13.792969 16.996094 L 12.742188 17.769531 C 12.695312 17.804688 12.628906 17.757812 12.652344 17.699219 L 13.070312 16.445312 C 13.078125 16.421875 13.070312 16.390625 13.046875 16.378906 L 11.972656 15.609375 C 11.925781 15.570312 11.949219 15.496094 12.007812 15.496094 L 13.328125 15.507812 C 13.355469 15.507812 13.378906 15.488281 13.390625 15.464844 L 13.757812 14.285156 C 13.789062 14.199219 13.902344 14.199219 13.929688 14.285156 Z M 13.929688 14.285156 "/>
<path style=" stroke:none;fill-rule:nonzero;fill:rgb(54.901963%,83.529413%,100%);fill-opacity:1;" d="M 18.339844 14.285156 L 18.710938 15.460938 C 18.722656 15.488281 18.746094 15.503906 18.773438 15.503906 L 20.09375 15.496094 C 20.152344 15.496094 20.175781 15.570312 20.128906 15.605469 L 19.054688 16.375 C 19.03125 16.390625 19.023438 16.417969 19.03125 16.441406 L 19.449219 17.695312 C 19.46875 17.753906 19.40625 17.800781 19.359375 17.765625 L 18.304688 16.996094 C 18.273438 16.972656 18.234375 16.972656 18.203125 16.996094 L 17.152344 17.769531 C 17.105469 17.804688 17.039062 17.757812 17.058594 17.699219 L 17.476562 16.445312 C 17.488281 16.421875 17.476562 16.390625 17.457031 16.378906 L 16.382812 15.609375 C 16.335938 15.570312 16.359375 15.496094 16.417969 15.496094 L 17.738281 15.507812 C 17.765625 15.507812 17.789062 15.488281 17.796875 15.464844 L 18.167969 14.285156 C 18.199219 14.199219 18.3125 14.199219 18.339844 14.285156 Z M 18.339844 14.285156 "/>
<path style=" stroke:none;fill-rule:nonzero;fill:rgb(54.901963%,83.529413%,100%);fill-opacity:1;" d="M 22.785156 14.285156 L 23.160156 15.460938 C 23.167969 15.488281 23.191406 15.503906 23.21875 15.503906 L 24.539062 15.496094 C 24.597656 15.496094 24.621094 15.570312 24.574219 15.605469 L 23.5 16.375 C 23.476562 16.390625 23.46875 16.417969 23.476562 16.441406 L 23.894531 17.695312 C 23.914062 17.753906 23.851562 17.800781 23.804688 17.765625 L 22.753906 16.996094 C 22.71875 16.972656 22.679688 16.972656 22.648438 16.996094 L 21.597656 17.769531 C 21.550781 17.804688 21.484375 17.757812 21.507812 17.699219 L 21.925781 16.445312 C 21.933594 16.421875 21.925781 16.390625 21.902344 16.378906 L 20.828125 15.609375 C 20.78125 15.570312 20.804688 15.496094 20.863281 15.496094 L 22.183594 15.507812 C 22.210938 15.507812 22.234375 15.488281 22.242188 15.464844 L 22.613281 14.285156 C 22.644531 14.199219 22.757812 14.199219 22.785156 14.285156 Z M 22.785156 14.285156 "/>
<path style=" stroke:none;fill-rule:nonzero;fill:rgb(5.490196%,7.843138%,12.156863%);fill-opacity:1;" d="M 18.847656 23.367188 L 18.847656 21.410156 L 13.097656 21.410156 L 13.097656 21.464844 L 13.105469 23.367188 C 13.105469 24.320312 14.390625 25.136719 15.980469 25.136719 C 17.558594 25.140625 18.847656 24.324219 18.847656 23.367188 M 15.972656 23.289062 L 15.988281 23.289062 L 15.972656 23.289062 "/>
<path style=" stroke:none;fill-rule:nonzero;fill:rgb(40.000001%,47.058824%,52.156866%);fill-opacity:1;" d="M 17.121094 23.140625 L 17.25 23.101562 C 17.292969 23.089844 17.332031 23.074219 17.371094 23.058594 L 17.375 23.058594 C 17.414062 23.046875 17.453125 23.03125 17.492188 23.011719 L 17.496094 23.011719 C 17.535156 22.996094 17.574219 22.980469 17.613281 22.964844 C 17.652344 22.949219 17.691406 22.929688 17.726562 22.910156 L 17.730469 22.910156 C 17.765625 22.894531 17.804688 22.875 17.835938 22.855469 L 17.839844 22.855469 C 17.875 22.835938 17.910156 22.816406 17.941406 22.796875 C 17.972656 22.777344 18.007812 22.757812 18.039062 22.734375 C 18.53125 22.410156 18.835938 21.972656 18.847656 21.488281 L 18.847656 21.464844 C 18.847656 20.453125 17.558594 19.636719 15.972656 19.636719 C 14.382812 19.636719 13.09375 20.453125 13.09375 21.464844 L 13.09375 21.488281 C 13.113281 22.488281 14.390625 23.289062 15.96875 23.289062 C 16.378906 23.292969 16.769531 23.238281 17.121094 23.140625 "/>
<path style=" stroke:none;fill-rule:nonzero;fill:rgb(20%,20%,20%);fill-opacity:1;" d="M 15.011719 21.402344 C 15.011719 21.328125 15.046875 21.25 15.023438 21.183594 C 15 21.113281 14.921875 21.070312 14.878906 21.015625 C 14.835938 20.957031 14.816406 20.871094 14.753906 20.828125 C 14.695312 20.785156 14.605469 20.796875 14.535156 20.773438 C 14.464844 20.75 14.398438 20.691406 14.320312 20.691406 C 14.242188 20.691406 14.175781 20.75 14.105469 20.773438 C 14.035156 20.792969 13.945312 20.785156 13.882812 20.828125 C 13.824219 20.871094 13.804688 20.957031 13.761719 21.015625 C 13.71875 21.070312 13.636719 21.113281 13.613281 21.183594 C 13.589844 21.25 13.628906 21.328125 13.628906 21.402344 C 13.628906 21.476562 13.589844 21.558594 13.613281 21.625 C 13.636719 21.695312 13.71875 21.738281 13.761719 21.792969 C 13.804688 21.851562 13.824219 21.9375 13.882812 21.980469 C 13.945312 22.023438 14.035156 22.011719 14.105469 22.035156 C 14.175781 22.058594 14.242188 22.117188 14.320312 22.117188 C 14.398438 22.117188 14.464844 22.058594 14.53125 22.035156 C 14.605469 22.011719 14.695312 22.023438 14.753906 21.980469 C 14.816406 21.9375 14.835938 21.851562 14.878906 21.792969 C 14.921875 21.738281 15 21.695312 15.023438 21.625 C 15.046875 21.558594 15.011719 21.476562 15.011719 21.402344 "/>
<path style=" stroke:none;fill-rule:nonzero;fill:rgb(20%,20%,20%);fill-opacity:1;" d="M 16.445312 22.382812 C 16.445312 22.308594 16.480469 22.230469 16.457031 22.164062 C 16.433594 22.09375 16.355469 22.050781 16.3125 21.992188 C 16.265625 21.933594 16.25 21.847656 16.1875 21.804688 C 16.128906 21.765625 16.039062 21.773438 15.964844 21.75 C 15.898438 21.730469 15.832031 21.671875 15.753906 21.671875 C 15.675781 21.671875 15.609375 21.730469 15.539062 21.75 C 15.46875 21.773438 15.378906 21.765625 15.316406 21.804688 C 15.257812 21.847656 15.238281 21.933594 15.195312 21.992188 C 15.148438 22.050781 15.070312 22.09375 15.046875 22.164062 C 15.023438 22.230469 15.0625 22.308594 15.0625 22.382812 C 15.0625 22.457031 15.023438 22.535156 15.046875 22.601562 C 15.070312 22.671875 15.148438 22.714844 15.195312 22.773438 C 15.238281 22.832031 15.257812 22.917969 15.316406 22.960938 C 15.375 23 15.464844 22.992188 15.539062 23.015625 C 15.609375 23.035156 15.675781 23.09375 15.753906 23.09375 C 15.828125 23.09375 15.898438 23.035156 15.964844 23.015625 C 16.039062 22.992188 16.128906 23 16.1875 22.960938 C 16.25 22.917969 16.265625 22.832031 16.3125 22.773438 C 16.355469 22.714844 16.433594 22.671875 16.457031 22.601562 C 16.480469 22.535156 16.445312 22.457031 16.445312 22.382812 "/>
<path style=" stroke:none;fill-rule:nonzero;fill:rgb(20%,20%,20%);fill-opacity:1;" d="M 16.796875 20.691406 C 16.796875 20.617188 16.835938 20.539062 16.8125 20.472656 C 16.789062 20.402344 16.710938 20.359375 16.667969 20.300781 C 16.621094 20.242188 16.605469 20.15625 16.542969 20.113281 C 16.484375 20.074219 16.394531 20.082031 16.320312 20.058594 C 16.25 20.039062 16.183594 19.980469 16.109375 19.980469 C 16.03125 19.980469 15.964844 20.039062 15.894531 20.058594 C 15.824219 20.082031 15.730469 20.074219 15.671875 20.113281 C 15.609375 20.15625 15.59375 20.242188 15.550781 20.300781 C 15.503906 20.359375 15.425781 20.402344 15.402344 20.472656 C 15.378906 20.539062 15.417969 20.617188 15.417969 20.691406 C 15.417969 20.765625 15.378906 20.84375 15.402344 20.910156 C 15.425781 20.980469 15.503906 21.023438 15.546875 21.082031 C 15.59375 21.140625 15.609375 21.226562 15.671875 21.265625 C 15.730469 21.308594 15.820312 21.300781 15.894531 21.324219 C 15.964844 21.34375 16.03125 21.402344 16.109375 21.402344 C 16.183594 21.402344 16.25 21.34375 16.320312 21.324219 C 16.394531 21.300781 16.484375 21.308594 16.542969 21.265625 C 16.605469 21.226562 16.621094 21.140625 16.667969 21.082031 C 16.710938 21.023438 16.789062 20.980469 16.8125 20.910156 C 16.835938 20.84375 16.796875 20.765625 16.796875 20.691406 "/>
<path style=" stroke:none;fill-rule:nonzero;fill:rgb(20%,20%,20%);fill-opacity:1;" d="M 18.222656 21.867188 C 18.222656 21.792969 18.257812 21.714844 18.234375 21.648438 C 18.210938 21.578125 18.132812 21.535156 18.089844 21.476562 C 18.046875 21.417969 18.027344 21.332031 17.964844 21.289062 C 17.90625 21.25 17.816406 21.257812 17.746094 21.234375 C 17.675781 21.214844 17.609375 21.152344 17.53125 21.152344 C 17.453125 21.152344 17.386719 21.214844 17.316406 21.234375 C 17.246094 21.257812 17.15625 21.25 17.09375 21.289062 C 17.035156 21.332031 17.015625 21.417969 16.972656 21.476562 C 16.929688 21.535156 16.847656 21.578125 16.824219 21.648438 C 16.804688 21.714844 16.839844 21.792969 16.839844 21.867188 C 16.839844 21.941406 16.800781 22.019531 16.824219 22.085938 C 16.847656 22.15625 16.929688 22.199219 16.972656 22.257812 C 17.015625 22.316406 17.035156 22.402344 17.09375 22.441406 C 17.15625 22.484375 17.246094 22.476562 17.316406 22.5 C 17.386719 22.519531 17.453125 22.578125 17.53125 22.578125 C 17.609375 22.578125 17.675781 22.519531 17.746094 22.5 C 17.816406 22.476562 17.90625 22.484375 17.964844 22.441406 C 18.027344 22.402344 18.046875 22.316406 18.089844 22.257812 C 18.132812 22.199219 18.210938 22.15625 18.234375 22.085938 C 18.257812 22.019531 18.222656 21.941406 18.222656 21.867188 "/>
<path style=" stroke:none;fill-rule:nonzero;fill:rgb(100%,74.901962%,12.54902%);fill-opacity:1;" d="M 14.898438 7.390625 L 14.898438 11.527344 L 13.167969 10.804688 L 11.4375 11.527344 L 11.4375 7.390625 L 14.898438 7.390625 "/>
<path style=" stroke:none;fill-rule:nonzero;fill:rgb(97.647059%,76.862746%,25.098041%);fill-opacity:1;" d="M 11.292969 7.246094 L 11.292969 11.746094 L 13.167969 10.960938 L 15.042969 11.746094 L 15.042969 7.246094 L 11.292969 7.246094 M 14.898438 7.941406 L 14.898438 11.527344 L 13.167969 10.804688 L 11.4375 11.527344 L 11.4375 7.390625 L 14.898438 7.390625 L 14.898438 7.941406 "/>
<path style=" stroke:none;fill-rule:nonzero;fill:rgb(0%,0%,0%);fill-opacity:1;" d="M 12.898438 8.125 C 12.863281 8.125 12.847656 8.144531 12.847656 8.179688 L 12.847656 8.433594 C 12.847656 8.46875 12.867188 8.488281 12.902344 8.484375 L 13.066406 8.460938 L 13.066406 10.148438 C 13.066406 10.175781 13.082031 10.191406 13.109375 10.191406 L 13.386719 10.191406 C 13.414062 10.191406 13.429688 10.175781 13.429688 10.148438 L 13.429688 8.097656 C 13.429688 8.074219 13.414062 8.058594 13.386719 8.058594 Z M 12.898438 8.125 "/>
<path style=" stroke:none;fill-rule:nonzero;fill:rgb(100%,74.901962%,12.54902%);fill-opacity:1;" d="M 10.675781 13.933594 L 10.675781 18.070312 L 8.945312 17.347656 L 7.210938 18.070312 L 7.210938 13.933594 L 10.675781 13.933594 "/>
<path style=" stroke:none;fill-rule:nonzero;fill:rgb(97.647059%,76.862746%,25.098041%);fill-opacity:1;" d="M 7.070312 13.789062 L 7.070312 18.289062 L 8.945312 17.507812 L 10.820312 18.289062 L 10.820312 13.789062 L 7.070312 13.789062 M 10.675781 14.484375 L 10.675781 18.070312 L 8.945312 17.347656 L 7.210938 18.070312 L 7.210938 13.933594 L 10.675781 13.933594 L 10.675781 14.484375 "/>
<path style=" stroke:none;fill-rule:nonzero;fill:rgb(0%,0%,0%);fill-opacity:1;" d="M 9.386719 15.988281 C 9.4375 15.960938 9.460938 15.941406 9.460938 15.890625 L 9.460938 15.261719 C 9.460938 15.011719 9.324219 14.878906 9.074219 14.878906 L 8.777344 14.878906 C 8.527344 14.878906 8.390625 15.011719 8.390625 15.261719 L 8.390625 15.542969 C 8.390625 15.570312 8.40625 15.585938 8.433594 15.585938 L 8.710938 15.585938 C 8.738281 15.585938 8.753906 15.570312 8.753906 15.542969 L 8.753906 15.335938 C 8.753906 15.265625 8.789062 15.230469 8.863281 15.230469 L 8.988281 15.230469 C 9.054688 15.230469 9.097656 15.265625 9.097656 15.335938 L 9.097656 15.730469 L 8.460938 16.070312 C 8.410156 16.097656 8.390625 16.121094 8.390625 16.171875 L 8.390625 16.957031 C 8.390625 16.992188 8.410156 17.011719 8.445312 17.011719 L 9.40625 17.011719 C 9.441406 17.011719 9.460938 16.992188 9.460938 16.957031 L 9.460938 16.550781 C 9.460938 16.515625 9.441406 16.496094 9.40625 16.496094 L 9.148438 16.496094 C 9.113281 16.496094 9.097656 16.515625 9.097656 16.550781 L 9.097656 16.660156 L 8.808594 16.660156 C 8.773438 16.660156 8.753906 16.640625 8.753906 16.605469 L 8.753906 16.375 C 8.753906 16.34375 8.765625 16.324219 8.792969 16.308594 Z M 9.386719 15.988281 "/>
</g>
</svg>
