<?xml version="1.0" encoding="UTF-8"?>
<svg xmlns="http://www.w3.org/2000/svg" xmlns:xlink="http://www.w3.org/1999/xlink" width="32" height="32" viewBox="0 0 32 32" version="1.1">
<g id="surface1">
<path style="fill-rule:nonzero;fill:rgb(83.137256%,83.137256%,83.137256%);fill-opacity:1;stroke-width:0.97833;stroke-linecap:butt;stroke-linejoin:miter;stroke:rgb(0%,0%,0%);stroke-opacity:1;stroke-miterlimit:4;" d="M 26.765625 15 L 103.234375 15 C 109.734375 15 115 19.0625 115 24.09375 L 115 105.90625 C 115 110.9375 109.734375 115 103.234375 115 L 26.765625 115 C 20.265625 115 15 110.9375 15 105.90625 L 15 24.09375 C 15 19.0625 20.265625 15 26.765625 15 Z M 26.765625 15 " transform="matrix(0.25,0,0,0.25,0,0)"/>
<path style="fill-rule:nonzero;fill:rgb(28.235295%,35.294119%,42.352942%);fill-opacity:1;stroke-width:0.349334;stroke-linecap:butt;stroke-linejoin:miter;stroke:rgb(0%,0%,0%);stroke-opacity:1;stroke-miterlimit:4;" d="M 15 10 L 20 10 C 22.765625 10 25 12.234375 25 15 L 25 115 C 25 117.765625 22.765625 120 20 120 L 15 120 C 12.234375 120 10 117.765625 10 115 L 10 15 C 10 12.234375 12.234375 10 15 10 Z M 15 10 " transform="matrix(0.25,0,0,0.25,0,0)"/>
<path style=" stroke:none;fill-rule:nonzero;fill:rgb(83.137256%,55.686277%,8.235294%);fill-opacity:1;" d="M 7.5 8.75 L 10 8.75 L 10 12.5 L 7.5 12.5 Z M 7.5 8.75 "/>
<path style=" stroke:none;fill-rule:nonzero;fill:rgb(83.137256%,55.686277%,8.235294%);fill-opacity:1;" d="M 14.660156 8.75 L 22.839844 8.75 C 23.34375 8.75 23.75 9.308594 23.75 10 L 23.75 11.25 C 23.75 11.941406 23.34375 12.5 22.839844 12.5 L 14.660156 12.5 C 14.15625 12.5 13.75 11.941406 13.75 11.25 L 13.75 10 C 13.75 9.308594 14.15625 8.75 14.660156 8.75 Z M 14.660156 8.75 "/>
<path style=" stroke:none;fill-rule:nonzero;fill:rgb(95.294118%,45.09804%,16.078432%);fill-opacity:1;" d="M 7.5 15 L 10 15 L 10 18.75 L 7.5 18.75 Z M 7.5 15 "/>
<path style=" stroke:none;fill-rule:nonzero;fill:rgb(95.294118%,45.09804%,16.078432%);fill-opacity:1;" d="M 11.25 16.25 L 16.25 16.25 C 16.941406 16.25 17.5 16.53125 17.5 16.875 C 17.5 17.21875 16.941406 17.5 16.25 17.5 L 11.25 17.5 C 10.558594 17.5 10 17.21875 10 16.875 C 10 16.53125 10.558594 16.25 11.25 16.25 Z M 11.25 16.25 "/>
<path style=" stroke:none;fill-rule:nonzero;fill:rgb(67.843139%,37.254903%,0%);fill-opacity:1;" d="M 10 22.5 L 15 22.5 C 15.691406 22.5 16.25 22.78125 16.25 23.125 C 16.25 23.46875 15.691406 23.75 15 23.75 L 10 23.75 C 9.308594 23.75 8.75 23.46875 8.75 23.125 C 8.75 22.78125 9.308594 22.5 10 22.5 Z M 10 22.5 "/>
<path style=" stroke:none;fill-rule:nonzero;fill:rgb(95.294118%,45.09804%,16.078432%);fill-opacity:1;" d="M 14.433594 15 L 20.566406 15 C 20.945312 15 21.25 15.558594 21.25 16.25 L 21.25 17.5 C 21.25 18.191406 20.945312 18.75 20.566406 18.75 L 14.433594 18.75 C 14.054688 18.75 13.75 18.191406 13.75 17.5 L 13.75 16.25 C 13.75 15.558594 14.054688 15 14.433594 15 Z M 14.433594 15 "/>
<path style=" stroke:none;fill-rule:nonzero;fill:rgb(67.843139%,37.254903%,0%);fill-opacity:1;" d="M 7.5 21.25 L 10 21.25 L 10 25 L 7.5 25 Z M 7.5 21.25 "/>
<path style=" stroke:none;fill-rule:nonzero;fill:rgb(67.843139%,37.254903%,0%);fill-opacity:1;" d="M 14.886719 21.25 L 25.113281 21.25 C 25.742188 21.25 26.25 21.808594 26.25 22.5 L 26.25 23.75 C 26.25 24.441406 25.742188 25 25.113281 25 L 14.886719 25 C 14.257812 25 13.75 24.441406 13.75 23.75 L 13.75 22.5 C 13.75 21.808594 14.257812 21.25 14.886719 21.25 Z M 14.886719 21.25 "/>
<path style=" stroke:none;fill-rule:nonzero;fill:rgb(83.137256%,55.686277%,8.235294%);fill-opacity:1;" d="M 10 8.75 C 10.691406 8.75 11.25 9.308594 11.25 10 L 11.25 11.25 C 11.25 11.941406 10.691406 12.5 10 12.5 C 9.308594 12.5 8.75 11.941406 8.75 11.25 L 8.75 10 C 8.75 9.308594 9.308594 8.75 10 8.75 Z M 10 8.75 "/>
<path style=" stroke:none;fill-rule:nonzero;fill:rgb(95.294118%,45.09804%,16.078432%);fill-opacity:1;" d="M 10 15 C 10.691406 15 11.25 15.558594 11.25 16.25 L 11.25 17.5 C 11.25 18.191406 10.691406 18.75 10 18.75 C 9.308594 18.75 8.75 18.191406 8.75 17.5 L 8.75 16.25 C 8.75 15.558594 9.308594 15 10 15 Z M 10 15 "/>
<path style=" stroke:none;fill-rule:nonzero;fill:rgb(67.843139%,37.254903%,0%);fill-opacity:1;" d="M 10 21.25 C 10.691406 21.25 11.25 21.808594 11.25 22.5 L 11.25 23.75 C 11.25 24.441406 10.691406 25 10 25 C 9.308594 25 8.75 24.441406 8.75 23.75 L 8.75 22.5 C 8.75 21.808594 9.308594 21.25 10 21.25 Z M 10 21.25 "/>
<path style=" stroke:none;fill-rule:nonzero;fill:rgb(83.137256%,55.686277%,8.235294%);fill-opacity:1;" d="M 11.25 10 L 16.25 10 C 16.941406 10 17.5 10.28125 17.5 10.625 C 17.5 10.96875 16.941406 11.25 16.25 11.25 L 11.25 11.25 C 10.558594 11.25 10 10.96875 10 10.625 C 10 10.28125 10.558594 10 11.25 10 Z M 11.25 10 "/>
<path style=" stroke:none;fill-rule:nonzero;fill:rgb(83.137256%,55.686277%,8.235294%);fill-opacity:1;" d="M 11.25 10 L 16.25 10 C 16.941406 10 17.5 10.28125 17.5 10.625 C 17.5 10.96875 16.941406 11.25 16.25 11.25 L 11.25 11.25 C 10.558594 11.25 10 10.96875 10 10.625 C 10 10.28125 10.558594 10 11.25 10 Z M 11.25 10 "/>
</g>
</svg>
