<?xml version="1.0" encoding="UTF-8"?>
<svg xmlns="http://www.w3.org/2000/svg" xmlns:xlink="http://www.w3.org/1999/xlink" width="48" height="48" viewBox="0 0 48 48" version="1.1">
<g id="surface1">
<path style=" stroke:none;fill-rule:nonzero;fill:rgb(26.274511%,83.92157%,70.980394%);fill-opacity:1;" d="M 24.167969 2.1875 C 12.15625 2.1875 2.417969 11.921875 2.417969 23.9375 C 2.417969 35.945312 12.15625 45.6875 24.167969 45.6875 C 36.179688 45.6875 45.917969 35.945312 45.917969 23.9375 C 45.917969 11.921875 36.179688 2.1875 24.167969 2.1875 "/>
<path style=" stroke:none;fill-rule:nonzero;fill:rgb(87.058824%,24.313726%,50.196081%);fill-opacity:1;" d="M 32.164062 19.386719 L 16.242188 19.386719 C 15.359375 19.386719 14.640625 18.660156 14.640625 17.765625 L 14.640625 11.257812 C 14.640625 10.367188 15.359375 9.640625 16.242188 9.640625 L 32.164062 9.640625 C 33.046875 9.640625 33.765625 10.367188 33.765625 11.257812 L 33.765625 17.765625 C 33.765625 18.660156 33.046875 19.386719 32.164062 19.386719 "/>
<path style=" stroke:none;fill-rule:nonzero;fill:rgb(95.294118%,45.09804%,16.078432%);fill-opacity:1;" d="M 37.835938 28.960938 L 10.28125 28.960938 C 9.398438 28.960938 8.679688 28.234375 8.679688 27.34375 L 8.679688 20.835938 C 8.679688 19.941406 9.398438 19.210938 10.28125 19.210938 L 37.835938 19.210938 C 38.710938 19.210938 39.429688 19.941406 39.429688 20.835938 L 39.429688 27.34375 C 39.429688 28.234375 38.710938 28.960938 37.835938 28.960938 "/>
<path style=" stroke:none;fill-rule:nonzero;fill:rgb(97.647059%,76.862746%,25.098041%);fill-opacity:1;" d="M 28.78125 38.539062 L 19.605469 38.539062 C 18.722656 38.539062 18.003906 37.808594 18.003906 36.914062 L 18.003906 30.40625 C 18.003906 29.515625 18.722656 28.789062 19.605469 28.789062 L 28.78125 28.789062 C 29.664062 28.789062 30.378906 29.515625 30.378906 30.40625 L 30.378906 36.914062 C 30.378906 37.808594 29.664062 38.539062 28.78125 38.539062 "/>
<path style=" stroke:none;fill-rule:nonzero;fill:rgb(100%,88.235295%,41.960785%);fill-opacity:1;" d="M 28.378906 11.414062 L 29.289062 13.257812 C 29.304688 13.292969 29.335938 13.316406 29.375 13.320312 L 31.421875 13.617188 C 31.507812 13.632812 31.546875 13.742188 31.480469 13.800781 L 30 15.238281 C 29.972656 15.261719 29.960938 15.296875 29.96875 15.335938 L 30.316406 17.367188 C 30.328125 17.457031 30.234375 17.527344 30.15625 17.484375 L 28.328125 16.523438 C 28.296875 16.507812 28.257812 16.507812 28.226562 16.523438 L 26.394531 17.484375 C 26.316406 17.527344 26.222656 17.457031 26.234375 17.367188 L 26.585938 15.335938 C 26.589844 15.296875 26.578125 15.265625 26.554688 15.238281 L 25.078125 13.800781 C 25.015625 13.734375 25.050781 13.632812 25.140625 13.617188 L 27.179688 13.320312 C 27.21875 13.316406 27.25 13.292969 27.265625 13.257812 L 28.179688 11.414062 C 28.21875 11.335938 28.335938 11.335938 28.378906 11.414062 Z M 28.378906 11.414062 "/>
<path style=" stroke:none;fill-rule:nonzero;fill:rgb(54.901963%,83.529413%,100%);fill-opacity:1;" d="M 20.894531 21.429688 L 21.453125 23.191406 C 21.46875 23.234375 21.503906 23.257812 21.546875 23.257812 L 23.523438 23.242188 C 23.617188 23.242188 23.648438 23.351562 23.578125 23.40625 L 21.964844 24.5625 C 21.933594 24.585938 21.921875 24.628906 21.933594 24.664062 L 22.5625 26.546875 C 22.585938 26.632812 22.492188 26.703125 22.421875 26.648438 L 20.84375 25.492188 C 20.796875 25.460938 20.738281 25.460938 20.6875 25.492188 L 19.117188 26.652344 C 19.042969 26.707031 18.945312 26.632812 18.976562 26.546875 L 19.601562 24.667969 C 19.617188 24.632812 19.601562 24.585938 19.570312 24.566406 L 17.960938 23.414062 C 17.886719 23.359375 17.921875 23.246094 18.015625 23.246094 L 19.992188 23.257812 C 20.03125 23.257812 20.070312 23.234375 20.085938 23.195312 L 20.640625 21.429688 C 20.683594 21.296875 20.851562 21.296875 20.894531 21.429688 Z M 20.894531 21.429688 "/>
<path style=" stroke:none;fill-rule:nonzero;fill:rgb(54.901963%,83.529413%,100%);fill-opacity:1;" d="M 27.507812 21.429688 L 28.070312 23.191406 C 28.082031 23.234375 28.117188 23.257812 28.15625 23.257812 L 30.140625 23.242188 C 30.226562 23.242188 30.265625 23.351562 30.195312 23.40625 L 28.578125 24.5625 C 28.546875 24.585938 28.535156 24.628906 28.546875 24.664062 L 29.175781 26.546875 C 29.203125 26.632812 29.109375 26.703125 29.039062 26.648438 L 27.460938 25.492188 C 27.410156 25.460938 27.351562 25.460938 27.304688 25.492188 L 25.726562 26.652344 C 25.65625 26.707031 25.558594 26.632812 25.589844 26.546875 L 26.21875 24.667969 C 26.230469 24.632812 26.21875 24.585938 26.1875 24.566406 L 24.570312 23.414062 C 24.5 23.359375 24.539062 23.246094 24.625 23.246094 L 26.609375 23.257812 C 26.648438 23.257812 26.683594 23.234375 26.695312 23.195312 L 27.253906 21.429688 C 27.296875 21.296875 27.46875 21.296875 27.507812 21.429688 Z M 27.507812 21.429688 "/>
<path style=" stroke:none;fill-rule:nonzero;fill:rgb(54.901963%,83.529413%,100%);fill-opacity:1;" d="M 34.179688 21.429688 L 34.738281 23.191406 C 34.75 23.234375 34.789062 23.257812 34.828125 23.257812 L 36.808594 23.242188 C 36.898438 23.242188 36.933594 23.351562 36.859375 23.40625 L 35.25 24.5625 C 35.21875 24.585938 35.203125 24.628906 35.21875 24.664062 L 35.84375 26.546875 C 35.871094 26.632812 35.777344 26.703125 35.703125 26.648438 L 34.128906 25.492188 C 34.078125 25.460938 34.019531 25.460938 33.96875 25.492188 L 32.398438 26.652344 C 32.328125 26.707031 32.226562 26.632812 32.257812 26.546875 L 32.886719 24.667969 C 32.898438 24.632812 32.886719 24.585938 32.855469 24.566406 L 31.242188 23.414062 C 31.171875 23.359375 31.203125 23.246094 31.296875 23.246094 L 33.277344 23.257812 C 33.316406 23.257812 33.351562 23.234375 33.367188 23.195312 L 33.921875 21.429688 C 33.96875 21.296875 34.136719 21.296875 34.179688 21.429688 Z M 34.179688 21.429688 "/>
<path style=" stroke:none;fill-rule:nonzero;fill:rgb(5.490196%,7.843138%,12.156863%);fill-opacity:1;" d="M 28.273438 35.046875 L 28.273438 32.117188 L 19.648438 32.117188 L 19.648438 32.195312 L 19.65625 35.046875 C 19.65625 36.476562 21.585938 37.703125 23.96875 37.703125 C 26.335938 37.710938 28.273438 36.484375 28.273438 35.046875 M 23.960938 34.9375 L 23.980469 34.9375 L 23.960938 34.9375 "/>
<path style=" stroke:none;fill-rule:nonzero;fill:rgb(40.000001%,47.058824%,52.156866%);fill-opacity:1;" d="M 25.679688 34.710938 L 25.875 34.652344 C 25.9375 34.632812 26 34.613281 26.054688 34.585938 L 26.0625 34.585938 C 26.121094 34.570312 26.179688 34.546875 26.242188 34.519531 C 26.304688 34.492188 26.359375 34.46875 26.417969 34.445312 L 26.421875 34.445312 C 26.476562 34.421875 26.539062 34.398438 26.589844 34.367188 L 26.59375 34.367188 C 26.648438 34.34375 26.703125 34.3125 26.753906 34.285156 L 26.757812 34.285156 C 26.8125 34.253906 26.863281 34.226562 26.914062 34.195312 C 26.960938 34.164062 27.011719 34.136719 27.0625 34.101562 C 27.796875 33.617188 28.257812 32.960938 28.273438 32.230469 L 28.273438 32.195312 C 28.273438 30.679688 26.335938 29.453125 23.957031 29.453125 C 21.574219 29.453125 19.640625 30.679688 19.640625 32.195312 L 19.640625 32.230469 C 19.671875 33.730469 21.585938 34.9375 23.953125 34.9375 C 24.570312 34.941406 25.152344 34.859375 25.679688 34.710938 "/>
<path style=" stroke:none;fill-rule:nonzero;fill:rgb(20%,20%,20%);fill-opacity:1;" d="M 22.515625 32.105469 C 22.515625 31.992188 22.570312 31.875 22.539062 31.773438 C 22.5 31.671875 22.382812 31.609375 22.320312 31.523438 C 22.25 31.433594 22.226562 31.304688 22.132812 31.242188 C 22.042969 31.179688 21.90625 31.195312 21.800781 31.15625 C 21.695312 31.125 21.59375 31.039062 21.480469 31.039062 C 21.363281 31.039062 21.265625 31.125 21.160156 31.15625 C 21.050781 31.191406 20.914062 31.179688 20.828125 31.242188 C 20.734375 31.304688 20.707031 31.433594 20.640625 31.523438 C 20.578125 31.609375 20.457031 31.671875 20.421875 31.773438 C 20.386719 31.875 20.445312 31.992188 20.445312 32.105469 C 20.445312 32.21875 20.386719 32.335938 20.421875 32.4375 C 20.457031 32.539062 20.578125 32.605469 20.640625 32.691406 C 20.707031 32.78125 20.734375 32.90625 20.828125 32.96875 C 20.914062 33.03125 21.050781 33.019531 21.15625 33.054688 C 21.265625 33.085938 21.363281 33.171875 21.476562 33.171875 C 21.59375 33.171875 21.695312 33.085938 21.796875 33.054688 C 21.90625 33.019531 22.042969 33.03125 22.132812 32.96875 C 22.226562 32.90625 22.25 32.78125 22.320312 32.691406 C 22.382812 32.605469 22.5 32.539062 22.539062 32.4375 C 22.570312 32.335938 22.515625 32.21875 22.515625 32.105469 "/>
<path style=" stroke:none;fill-rule:nonzero;fill:rgb(20%,20%,20%);fill-opacity:1;" d="M 24.664062 33.574219 C 24.664062 33.460938 24.71875 33.34375 24.6875 33.242188 C 24.652344 33.140625 24.53125 33.078125 24.46875 32.988281 C 24.398438 32.898438 24.375 32.773438 24.28125 32.710938 C 24.195312 32.648438 24.058594 32.660156 23.949219 32.625 C 23.84375 32.59375 23.746094 32.507812 23.628906 32.507812 C 23.515625 32.507812 23.414062 32.59375 23.308594 32.625 C 23.203125 32.660156 23.066406 32.648438 22.976562 32.710938 C 22.882812 32.773438 22.859375 32.898438 22.789062 32.988281 C 22.726562 33.078125 22.605469 33.140625 22.570312 33.242188 C 22.539062 33.34375 22.59375 33.460938 22.59375 33.574219 C 22.59375 33.6875 22.539062 33.804688 22.570312 33.90625 C 22.605469 34.007812 22.726562 34.070312 22.789062 34.160156 C 22.859375 34.25 22.882812 34.375 22.976562 34.4375 C 23.0625 34.5 23.199219 34.488281 23.308594 34.523438 C 23.414062 34.554688 23.515625 34.640625 23.628906 34.640625 C 23.742188 34.640625 23.84375 34.554688 23.949219 34.523438 C 24.054688 34.488281 24.195312 34.5 24.28125 34.4375 C 24.375 34.375 24.398438 34.25 24.46875 34.160156 C 24.53125 34.070312 24.652344 34.007812 24.6875 33.90625 C 24.71875 33.804688 24.664062 33.6875 24.664062 33.574219 "/>
<path style=" stroke:none;fill-rule:nonzero;fill:rgb(20%,20%,20%);fill-opacity:1;" d="M 25.195312 31.039062 C 25.195312 30.925781 25.253906 30.804688 25.21875 30.707031 C 25.183594 30.601562 25.066406 30.539062 25 30.453125 C 24.933594 30.363281 24.90625 30.234375 24.8125 30.171875 C 24.726562 30.109375 24.589844 30.125 24.484375 30.089844 C 24.375 30.054688 24.277344 29.96875 24.164062 29.96875 C 24.046875 29.96875 23.945312 30.054688 23.84375 30.089844 C 23.734375 30.125 23.597656 30.109375 23.507812 30.171875 C 23.414062 30.234375 23.390625 30.363281 23.324219 30.453125 C 23.257812 30.539062 23.140625 30.601562 23.101562 30.707031 C 23.070312 30.804688 23.125 30.925781 23.125 31.039062 C 23.125 31.148438 23.070312 31.265625 23.101562 31.367188 C 23.140625 31.46875 23.257812 31.535156 23.320312 31.625 C 23.390625 31.710938 23.414062 31.835938 23.507812 31.898438 C 23.597656 31.964844 23.734375 31.953125 23.84375 31.984375 C 23.945312 32.015625 24.046875 32.105469 24.164062 32.105469 C 24.277344 32.105469 24.375 32.015625 24.484375 31.984375 C 24.589844 31.953125 24.726562 31.964844 24.8125 31.898438 C 24.90625 31.835938 24.933594 31.710938 25 31.625 C 25.066406 31.535156 25.183594 31.46875 25.21875 31.367188 C 25.253906 31.265625 25.195312 31.148438 25.195312 31.039062 "/>
<path style=" stroke:none;fill-rule:nonzero;fill:rgb(20%,20%,20%);fill-opacity:1;" d="M 27.332031 32.800781 C 27.332031 32.6875 27.390625 32.570312 27.351562 32.46875 C 27.320312 32.367188 27.199219 32.300781 27.132812 32.214844 C 27.070312 32.125 27.039062 32 26.949219 31.9375 C 26.859375 31.875 26.726562 31.886719 26.617188 31.851562 C 26.511719 31.820312 26.414062 31.730469 26.296875 31.730469 C 26.179688 31.730469 26.078125 31.820312 25.976562 31.851562 C 25.867188 31.886719 25.734375 31.875 25.640625 31.9375 C 25.550781 32 25.523438 32.125 25.457031 32.214844 C 25.390625 32.300781 25.273438 32.367188 25.238281 32.46875 C 25.203125 32.570312 25.257812 32.6875 25.257812 32.800781 C 25.257812 32.914062 25.203125 33.03125 25.238281 33.132812 C 25.273438 33.234375 25.390625 33.296875 25.457031 33.382812 C 25.523438 33.472656 25.550781 33.601562 25.640625 33.664062 C 25.734375 33.726562 25.867188 33.710938 25.976562 33.75 C 26.078125 33.78125 26.179688 33.867188 26.296875 33.867188 C 26.414062 33.867188 26.511719 33.78125 26.617188 33.75 C 26.726562 33.710938 26.859375 33.726562 26.949219 33.664062 C 27.039062 33.601562 27.070312 33.472656 27.132812 33.382812 C 27.203125 33.296875 27.320312 33.234375 27.351562 33.132812 C 27.390625 33.03125 27.332031 32.914062 27.332031 32.800781 "/>
<path style=" stroke:none;fill-rule:nonzero;fill:rgb(100%,74.901962%,12.54902%);fill-opacity:1;" d="M 22.351562 11.085938 L 22.351562 17.289062 L 19.753906 16.203125 L 17.15625 17.289062 L 17.15625 11.085938 L 22.351562 11.085938 "/>
<path style=" stroke:none;fill-rule:nonzero;fill:rgb(97.647059%,76.862746%,25.098041%);fill-opacity:1;" d="M 16.9375 10.867188 L 16.9375 17.617188 L 19.75 16.445312 L 22.5625 17.617188 L 22.5625 10.867188 L 16.9375 10.867188 M 22.351562 11.914062 L 22.351562 17.289062 L 19.753906 16.203125 L 17.15625 17.289062 L 17.15625 11.085938 L 22.351562 11.085938 L 22.351562 11.914062 "/>
<path style=" stroke:none;fill-rule:nonzero;fill:rgb(0%,0%,0%);fill-opacity:1;" d="M 19.34375 12.183594 C 19.292969 12.1875 19.269531 12.214844 19.269531 12.269531 L 19.269531 12.652344 C 19.269531 12.703125 19.300781 12.730469 19.351562 12.722656 L 19.601562 12.691406 L 19.601562 15.21875 C 19.601562 15.261719 19.621094 15.285156 19.664062 15.285156 L 20.082031 15.285156 C 20.121094 15.285156 20.144531 15.261719 20.144531 15.21875 L 20.144531 12.148438 C 20.144531 12.109375 20.121094 12.085938 20.082031 12.085938 Z M 19.34375 12.183594 "/>
<path style=" stroke:none;fill-rule:nonzero;fill:rgb(100%,74.901962%,12.54902%);fill-opacity:1;" d="M 16.015625 20.902344 L 16.015625 27.105469 L 13.417969 26.023438 L 10.820312 27.105469 L 10.820312 20.902344 L 16.015625 20.902344 "/>
<path style=" stroke:none;fill-rule:nonzero;fill:rgb(97.647059%,76.862746%,25.098041%);fill-opacity:1;" d="M 10.601562 20.6875 L 10.601562 27.433594 L 13.414062 26.257812 L 16.226562 27.433594 L 16.226562 20.6875 L 10.601562 20.6875 M 16.015625 21.726562 L 16.015625 27.105469 L 13.417969 26.023438 L 10.820312 27.105469 L 10.820312 20.902344 L 16.015625 20.902344 L 16.015625 21.726562 "/>
<path style=" stroke:none;fill-rule:nonzero;fill:rgb(0%,0%,0%);fill-opacity:1;" d="M 14.082031 23.984375 C 14.15625 23.941406 14.191406 23.910156 14.191406 23.835938 L 14.191406 22.890625 C 14.191406 22.515625 13.984375 22.316406 13.613281 22.316406 L 13.164062 22.316406 C 12.789062 22.316406 12.589844 22.515625 12.589844 22.890625 L 12.589844 23.316406 C 12.589844 23.355469 12.609375 23.378906 12.652344 23.378906 L 13.070312 23.378906 C 13.109375 23.378906 13.132812 23.355469 13.132812 23.316406 L 13.132812 23.003906 C 13.132812 22.898438 13.1875 22.84375 13.292969 22.84375 L 13.484375 22.84375 C 13.585938 22.84375 13.644531 22.898438 13.644531 23.003906 L 13.644531 23.59375 L 12.695312 24.105469 C 12.617188 24.148438 12.589844 24.179688 12.589844 24.253906 L 12.589844 25.433594 C 12.589844 25.488281 12.617188 25.515625 12.667969 25.515625 L 14.109375 25.515625 C 14.160156 25.515625 14.191406 25.488281 14.191406 25.433594 L 14.191406 24.824219 C 14.191406 24.769531 14.160156 24.742188 14.109375 24.742188 L 13.726562 24.742188 C 13.671875 24.742188 13.644531 24.769531 13.644531 24.824219 L 13.644531 24.988281 L 13.214844 24.988281 C 13.160156 24.988281 13.132812 24.957031 13.132812 24.90625 L 13.132812 24.558594 C 13.132812 24.515625 13.148438 24.488281 13.191406 24.460938 Z M 14.082031 23.984375 "/>
</g>
</svg>
