<?xml version="1.0" encoding="UTF-8"?>
<svg xmlns="http://www.w3.org/2000/svg" xmlns:xlink="http://www.w3.org/1999/xlink" width="48" height="48" viewBox="0 0 48 48" version="1.1">
<g id="surface1">
<path style="fill-rule:nonzero;fill:rgb(83.137256%,83.137256%,83.137256%);fill-opacity:1;stroke-width:0.97833;stroke-linecap:butt;stroke-linejoin:miter;stroke:rgb(0%,0%,0%);stroke-opacity:1;stroke-miterlimit:4;" d="M 26.760417 15 L 103.239583 15 C 109.729167 15 115 19.072917 115 24.09375 L 115 105.90625 C 115 110.927083 109.729167 115 103.239583 115 L 26.760417 115 C 20.270833 115 15 110.927083 15 105.90625 L 15 24.09375 C 15 19.072917 20.270833 15 26.760417 15 Z M 26.760417 15 " transform="matrix(0.375,0,0,0.375,0,0)"/>
<path style="fill-rule:nonzero;fill:rgb(28.235295%,35.294119%,42.352942%);fill-opacity:1;stroke-width:0.349334;stroke-linecap:butt;stroke-linejoin:miter;stroke:rgb(0%,0%,0%);stroke-opacity:1;stroke-miterlimit:4;" d="M 15 10 L 20 10 C 22.760417 10 25 12.239583 25 15 L 25 115 C 25 117.760417 22.760417 120 20 120 L 15 120 C 12.239583 120 10 117.760417 10 115 L 10 15 C 10 12.239583 12.239583 10 15 10 Z M 15 10 " transform="matrix(0.375,0,0,0.375,0,0)"/>
<path style=" stroke:none;fill-rule:nonzero;fill:rgb(83.137256%,55.686277%,8.235294%);fill-opacity:1;" d="M 11.25 13.125 L 15 13.125 L 15 18.75 L 11.25 18.75 Z M 11.25 13.125 "/>
<path style=" stroke:none;fill-rule:nonzero;fill:rgb(83.137256%,55.686277%,8.235294%);fill-opacity:1;" d="M 21.988281 13.125 L 34.261719 13.125 C 35.015625 13.125 35.625 13.964844 35.625 15 L 35.625 16.875 C 35.625 17.910156 35.015625 18.75 34.261719 18.75 L 21.988281 18.75 C 21.234375 18.75 20.625 17.910156 20.625 16.875 L 20.625 15 C 20.625 13.964844 21.234375 13.125 21.988281 13.125 Z M 21.988281 13.125 "/>
<path style=" stroke:none;fill-rule:nonzero;fill:rgb(95.294118%,45.09804%,16.078432%);fill-opacity:1;" d="M 11.25 22.5 L 15 22.5 L 15 28.125 L 11.25 28.125 Z M 11.25 22.5 "/>
<path style=" stroke:none;fill-rule:nonzero;fill:rgb(95.294118%,45.09804%,16.078432%);fill-opacity:1;" d="M 16.875 24.375 L 24.375 24.375 C 25.410156 24.375 26.25 24.792969 26.25 25.3125 C 26.25 25.832031 25.410156 26.25 24.375 26.25 L 16.875 26.25 C 15.839844 26.25 15 25.832031 15 25.3125 C 15 24.792969 15.839844 24.375 16.875 24.375 Z M 16.875 24.375 "/>
<path style=" stroke:none;fill-rule:nonzero;fill:rgb(67.843139%,37.254903%,0%);fill-opacity:1;" d="M 15 33.75 L 22.5 33.75 C 23.535156 33.75 24.375 34.167969 24.375 34.6875 C 24.375 35.207031 23.535156 35.625 22.5 35.625 L 15 35.625 C 13.964844 35.625 13.125 35.207031 13.125 34.6875 C 13.125 34.167969 13.964844 33.75 15 33.75 Z M 15 33.75 "/>
<path style=" stroke:none;fill-rule:nonzero;fill:rgb(95.294118%,45.09804%,16.078432%);fill-opacity:1;" d="M 21.648438 22.5 L 30.851562 22.5 C 31.417969 22.5 31.875 23.339844 31.875 24.375 L 31.875 26.25 C 31.875 27.285156 31.417969 28.125 30.851562 28.125 L 21.648438 28.125 C 21.082031 28.125 20.625 27.285156 20.625 26.25 L 20.625 24.375 C 20.625 23.339844 21.082031 22.5 21.648438 22.5 Z M 21.648438 22.5 "/>
<path style=" stroke:none;fill-rule:nonzero;fill:rgb(67.843139%,37.254903%,0%);fill-opacity:1;" d="M 11.25 31.875 L 15 31.875 L 15 37.5 L 11.25 37.5 Z M 11.25 31.875 "/>
<path style=" stroke:none;fill-rule:nonzero;fill:rgb(67.843139%,37.254903%,0%);fill-opacity:1;" d="M 22.328125 31.875 L 37.671875 31.875 C 38.613281 31.875 39.375 32.714844 39.375 33.75 L 39.375 35.625 C 39.375 36.660156 38.613281 37.5 37.671875 37.5 L 22.328125 37.5 C 21.386719 37.5 20.625 36.660156 20.625 35.625 L 20.625 33.75 C 20.625 32.714844 21.386719 31.875 22.328125 31.875 Z M 22.328125 31.875 "/>
<path style=" stroke:none;fill-rule:nonzero;fill:rgb(83.137256%,55.686277%,8.235294%);fill-opacity:1;" d="M 15 13.125 C 16.035156 13.125 16.875 13.964844 16.875 15 L 16.875 16.875 C 16.875 17.910156 16.035156 18.75 15 18.75 C 13.964844 18.75 13.125 17.910156 13.125 16.875 L 13.125 15 C 13.125 13.964844 13.964844 13.125 15 13.125 Z M 15 13.125 "/>
<path style=" stroke:none;fill-rule:nonzero;fill:rgb(95.294118%,45.09804%,16.078432%);fill-opacity:1;" d="M 15 22.5 C 16.035156 22.5 16.875 23.339844 16.875 24.375 L 16.875 26.25 C 16.875 27.285156 16.035156 28.125 15 28.125 C 13.964844 28.125 13.125 27.285156 13.125 26.25 L 13.125 24.375 C 13.125 23.339844 13.964844 22.5 15 22.5 Z M 15 22.5 "/>
<path style=" stroke:none;fill-rule:nonzero;fill:rgb(67.843139%,37.254903%,0%);fill-opacity:1;" d="M 15 31.875 C 16.035156 31.875 16.875 32.714844 16.875 33.75 L 16.875 35.625 C 16.875 36.660156 16.035156 37.5 15 37.5 C 13.964844 37.5 13.125 36.660156 13.125 35.625 L 13.125 33.75 C 13.125 32.714844 13.964844 31.875 15 31.875 Z M 15 31.875 "/>
<path style=" stroke:none;fill-rule:nonzero;fill:rgb(83.137256%,55.686277%,8.235294%);fill-opacity:1;" d="M 16.875 15 L 24.375 15 C 25.410156 15 26.25 15.417969 26.25 15.9375 C 26.25 16.457031 25.410156 16.875 24.375 16.875 L 16.875 16.875 C 15.839844 16.875 15 16.457031 15 15.9375 C 15 15.417969 15.839844 15 16.875 15 Z M 16.875 15 "/>
<path style=" stroke:none;fill-rule:nonzero;fill:rgb(83.137256%,55.686277%,8.235294%);fill-opacity:1;" d="M 16.875 15 L 24.375 15 C 25.410156 15 26.25 15.417969 26.25 15.9375 C 26.25 16.457031 25.410156 16.875 24.375 16.875 L 16.875 16.875 C 15.839844 16.875 15 16.457031 15 15.9375 C 15 15.417969 15.839844 15 16.875 15 Z M 16.875 15 "/>
</g>
</svg>
