<?xml version="1.0" encoding="UTF-8"?>
<svg xmlns="http://www.w3.org/2000/svg" xmlns:xlink="http://www.w3.org/1999/xlink" width="64" height="64" viewBox="0 0 64 64" version="1.1">
<g id="surface1">
<path style=" stroke:none;fill-rule:nonzero;fill:rgb(26.274511%,83.92157%,70.980394%);fill-opacity:1;" d="M 32.222656 2.914062 C 16.207031 2.914062 3.222656 15.898438 3.222656 31.914062 C 3.222656 47.929688 16.207031 60.914062 32.222656 60.914062 C 48.238281 60.914062 61.222656 47.929688 61.222656 31.914062 C 61.222656 15.898438 48.238281 2.914062 32.222656 2.914062 "/>
<path style=" stroke:none;fill-rule:nonzero;fill:rgb(87.058824%,24.313726%,50.196081%);fill-opacity:1;" d="M 42.886719 25.847656 L 21.652344 25.847656 C 20.480469 25.847656 19.519531 24.878906 19.519531 23.691406 L 19.519531 15.011719 C 19.519531 13.824219 20.480469 12.851562 21.652344 12.851562 L 42.886719 12.851562 C 44.066406 12.851562 45.019531 13.824219 45.019531 15.011719 L 45.019531 23.691406 C 45.019531 24.878906 44.066406 25.847656 42.886719 25.847656 "/>
<path style=" stroke:none;fill-rule:nonzero;fill:rgb(95.294118%,45.09804%,16.078432%);fill-opacity:1;" d="M 50.445312 38.617188 L 13.707031 38.617188 C 12.53125 38.617188 11.574219 37.644531 11.574219 36.457031 L 11.574219 27.777344 C 11.574219 26.589844 12.53125 25.617188 13.707031 25.617188 L 50.445312 25.617188 C 51.617188 25.617188 52.574219 26.589844 52.574219 27.777344 L 52.574219 36.457031 C 52.574219 37.644531 51.617188 38.617188 50.445312 38.617188 "/>
<path style=" stroke:none;fill-rule:nonzero;fill:rgb(97.647059%,76.862746%,25.098041%);fill-opacity:1;" d="M 38.371094 51.382812 L 26.140625 51.382812 C 24.964844 51.382812 24.003906 50.410156 24.003906 49.222656 L 24.003906 40.542969 C 24.003906 39.355469 24.964844 38.382812 26.140625 38.382812 L 38.371094 38.382812 C 39.550781 38.382812 40.503906 39.355469 40.503906 40.542969 L 40.503906 49.222656 C 40.503906 50.410156 39.550781 51.382812 38.371094 51.382812 "/>
<path style=" stroke:none;fill-rule:nonzero;fill:rgb(100%,88.235295%,41.960785%);fill-opacity:1;" d="M 37.839844 15.214844 L 39.054688 17.679688 C 39.074219 17.722656 39.117188 17.753906 39.167969 17.761719 L 41.894531 18.15625 C 42.011719 18.175781 42.058594 18.324219 41.972656 18.402344 L 40 20.316406 C 39.964844 20.347656 39.949219 20.398438 39.957031 20.449219 L 40.421875 23.160156 C 40.441406 23.277344 40.316406 23.371094 40.210938 23.316406 L 37.769531 22.03125 C 37.726562 22.007812 37.675781 22.007812 37.632812 22.03125 L 35.191406 23.316406 C 35.089844 23.371094 34.964844 23.277344 34.980469 23.160156 L 35.445312 20.449219 C 35.453125 20.398438 35.441406 20.355469 35.402344 20.316406 L 33.4375 18.402344 C 33.351562 18.316406 33.402344 18.175781 33.519531 18.15625 L 36.242188 17.761719 C 36.292969 17.753906 36.332031 17.722656 36.355469 17.679688 L 37.574219 15.214844 C 37.628906 15.113281 37.78125 15.113281 37.839844 15.214844 Z M 37.839844 15.214844 "/>
<path style=" stroke:none;fill-rule:nonzero;fill:rgb(54.901963%,83.529413%,100%);fill-opacity:1;" d="M 27.859375 28.570312 L 28.605469 30.921875 C 28.625 30.976562 28.671875 31.007812 28.726562 31.007812 L 31.367188 30.988281 C 31.488281 30.988281 31.535156 31.136719 31.441406 31.210938 L 29.285156 32.746094 C 29.246094 32.777344 29.230469 32.839844 29.246094 32.886719 L 30.082031 35.394531 C 30.117188 35.507812 29.992188 35.601562 29.898438 35.53125 L 27.792969 33.992188 C 27.730469 33.945312 27.652344 33.945312 27.582031 33.992188 L 25.488281 35.535156 C 25.390625 35.609375 25.261719 35.511719 25.300781 35.398438 L 26.136719 32.890625 C 26.15625 32.84375 26.136719 32.785156 26.097656 32.753906 L 23.945312 31.214844 C 23.847656 31.144531 23.898438 30.996094 24.019531 30.996094 L 26.660156 31.011719 C 26.710938 31.011719 26.761719 30.976562 26.777344 30.929688 L 27.519531 28.570312 C 27.578125 28.398438 27.804688 28.398438 27.859375 28.570312 Z M 27.859375 28.570312 "/>
<path style=" stroke:none;fill-rule:nonzero;fill:rgb(54.901963%,83.529413%,100%);fill-opacity:1;" d="M 36.675781 28.570312 L 37.425781 30.921875 C 37.441406 30.976562 37.488281 31.007812 37.542969 31.007812 L 40.183594 30.988281 C 40.304688 30.988281 40.355469 31.136719 40.257812 31.210938 L 38.105469 32.746094 C 38.066406 32.777344 38.046875 32.839844 38.066406 32.886719 L 38.902344 35.394531 C 38.9375 35.507812 38.8125 35.601562 38.714844 35.53125 L 36.613281 33.992188 C 36.546875 33.945312 36.46875 33.945312 36.402344 33.992188 L 34.304688 35.535156 C 34.210938 35.609375 34.078125 35.511719 34.121094 35.398438 L 34.957031 32.890625 C 34.972656 32.84375 34.957031 32.785156 34.914062 32.753906 L 32.761719 31.214844 C 32.667969 31.144531 32.714844 30.996094 32.835938 30.996094 L 35.476562 31.011719 C 35.53125 31.011719 35.578125 30.976562 35.597656 30.929688 L 36.339844 28.570312 C 36.398438 28.398438 36.625 28.398438 36.675781 28.570312 Z M 36.675781 28.570312 "/>
<path style=" stroke:none;fill-rule:nonzero;fill:rgb(54.901963%,83.529413%,100%);fill-opacity:1;" d="M 45.570312 28.570312 L 46.316406 30.921875 C 46.335938 30.976562 46.382812 31.007812 46.4375 31.007812 L 49.078125 30.988281 C 49.199219 30.988281 49.246094 31.136719 49.148438 31.210938 L 46.996094 32.746094 C 46.957031 32.777344 46.9375 32.839844 46.957031 32.886719 L 47.792969 35.394531 C 47.828125 35.507812 47.703125 35.601562 47.605469 35.53125 L 45.503906 33.992188 C 45.4375 33.945312 45.359375 33.945312 45.292969 33.992188 L 43.199219 35.535156 C 43.101562 35.609375 42.972656 35.511719 43.011719 35.398438 L 43.847656 32.890625 C 43.867188 32.84375 43.847656 32.785156 43.808594 32.753906 L 41.65625 31.214844 C 41.558594 31.144531 41.605469 30.996094 41.726562 30.996094 L 44.371094 31.011719 C 44.421875 31.011719 44.472656 30.976562 44.488281 30.929688 L 45.230469 28.570312 C 45.289062 28.398438 45.515625 28.398438 45.570312 28.570312 Z M 45.570312 28.570312 "/>
<path style=" stroke:none;fill-rule:nonzero;fill:rgb(5.490196%,7.843138%,12.156863%);fill-opacity:1;" d="M 37.695312 46.730469 L 37.695312 42.824219 L 26.195312 42.824219 L 26.195312 42.925781 L 26.207031 46.730469 C 26.207031 48.636719 28.785156 50.273438 31.960938 50.273438 C 35.117188 50.277344 37.695312 48.644531 37.695312 46.730469 M 31.949219 46.582031 L 31.972656 46.582031 L 31.949219 46.582031 "/>
<path style=" stroke:none;fill-rule:nonzero;fill:rgb(40.000001%,47.058824%,52.156866%);fill-opacity:1;" d="M 34.242188 46.28125 L 34.5 46.203125 C 34.582031 46.175781 34.664062 46.152344 34.742188 46.117188 L 34.75 46.117188 C 34.828125 46.089844 34.90625 46.058594 34.988281 46.027344 L 34.992188 46.027344 C 35.074219 45.992188 35.144531 45.960938 35.222656 45.925781 L 35.230469 45.925781 C 35.300781 45.894531 35.382812 45.863281 35.453125 45.824219 L 35.460938 45.824219 C 35.535156 45.792969 35.605469 45.753906 35.671875 45.714844 L 35.679688 45.714844 C 35.75 45.671875 35.816406 45.632812 35.882812 45.59375 C 35.949219 45.554688 36.015625 45.515625 36.082031 45.472656 C 37.0625 44.824219 37.675781 43.949219 37.695312 42.972656 L 37.695312 42.925781 C 37.695312 40.910156 35.117188 39.273438 31.941406 39.273438 C 28.765625 39.273438 26.1875 40.910156 26.1875 42.925781 L 26.1875 42.972656 C 26.230469 44.972656 28.785156 46.582031 31.933594 46.582031 C 32.757812 46.589844 33.535156 46.476562 34.242188 46.28125 "/>
<path style=" stroke:none;fill-rule:nonzero;fill:rgb(20%,20%,20%);fill-opacity:1;" d="M 30.019531 42.808594 C 30.019531 42.660156 30.097656 42.503906 30.050781 42.367188 C 30.003906 42.230469 29.84375 42.144531 29.757812 42.027344 C 29.667969 41.910156 29.632812 41.738281 29.511719 41.65625 C 29.390625 41.570312 29.210938 41.589844 29.066406 41.542969 C 28.925781 41.503906 28.792969 41.382812 28.640625 41.382812 C 28.484375 41.382812 28.351562 41.5 28.214844 41.542969 C 28.066406 41.589844 27.886719 41.570312 27.769531 41.65625 C 27.644531 41.738281 27.609375 41.910156 27.519531 42.027344 C 27.433594 42.144531 27.277344 42.230469 27.230469 42.367188 C 27.183594 42.503906 27.257812 42.660156 27.257812 42.808594 C 27.257812 42.957031 27.183594 43.113281 27.230469 43.246094 C 27.277344 43.386719 27.433594 43.472656 27.519531 43.589844 C 27.609375 43.707031 27.644531 43.875 27.769531 43.960938 C 27.886719 44.042969 28.066406 44.027344 28.210938 44.070312 C 28.351562 44.113281 28.484375 44.230469 28.636719 44.230469 C 28.792969 44.230469 28.925781 44.113281 29.066406 44.070312 C 29.210938 44.027344 29.390625 44.042969 29.511719 43.960938 C 29.632812 43.875 29.667969 43.707031 29.757812 43.589844 C 29.847656 43.472656 30.003906 43.386719 30.050781 43.246094 C 30.097656 43.113281 30.019531 42.957031 30.019531 42.808594 "/>
<path style=" stroke:none;fill-rule:nonzero;fill:rgb(20%,20%,20%);fill-opacity:1;" d="M 32.886719 44.765625 C 32.886719 44.617188 32.960938 44.457031 32.917969 44.324219 C 32.871094 44.183594 32.710938 44.101562 32.621094 43.984375 C 32.535156 43.867188 32.496094 43.699219 32.378906 43.613281 C 32.257812 43.527344 32.078125 43.546875 31.933594 43.503906 C 31.792969 43.457031 31.660156 43.339844 31.503906 43.339844 C 31.351562 43.339844 31.21875 43.457031 31.078125 43.503906 C 30.933594 43.546875 30.753906 43.527344 30.632812 43.613281 C 30.511719 43.699219 30.476562 43.867188 30.386719 43.984375 C 30.300781 44.101562 30.140625 44.183594 30.09375 44.324219 C 30.050781 44.457031 30.121094 44.617188 30.121094 44.765625 C 30.121094 44.914062 30.050781 45.074219 30.09375 45.207031 C 30.140625 45.34375 30.300781 45.429688 30.386719 45.546875 C 30.476562 45.664062 30.511719 45.832031 30.632812 45.917969 C 30.753906 46.003906 30.933594 45.984375 31.078125 46.027344 C 31.21875 46.074219 31.351562 46.191406 31.503906 46.191406 C 31.660156 46.191406 31.792969 46.074219 31.933594 46.027344 C 32.074219 45.984375 32.257812 46.003906 32.378906 45.917969 C 32.496094 45.832031 32.535156 45.664062 32.621094 45.546875 C 32.710938 45.429688 32.871094 45.34375 32.917969 45.207031 C 32.960938 45.070312 32.886719 44.914062 32.886719 44.765625 "/>
<path style=" stroke:none;fill-rule:nonzero;fill:rgb(20%,20%,20%);fill-opacity:1;" d="M 33.597656 41.382812 C 33.597656 41.234375 33.671875 41.074219 33.625 40.941406 C 33.578125 40.800781 33.421875 40.71875 33.332031 40.601562 C 33.246094 40.484375 33.207031 40.316406 33.085938 40.230469 C 32.964844 40.144531 32.785156 40.164062 32.644531 40.121094 C 32.503906 40.074219 32.371094 39.957031 32.214844 39.957031 C 32.0625 39.957031 31.925781 40.074219 31.789062 40.121094 C 31.644531 40.164062 31.464844 40.144531 31.34375 40.230469 C 31.222656 40.316406 31.183594 40.484375 31.097656 40.601562 C 31.011719 40.71875 30.851562 40.800781 30.804688 40.941406 C 30.761719 41.074219 30.832031 41.234375 30.832031 41.382812 C 30.832031 41.53125 30.757812 41.691406 30.804688 41.824219 C 30.851562 41.960938 31.011719 42.046875 31.097656 42.164062 C 31.183594 42.277344 31.222656 42.449219 31.34375 42.535156 C 31.464844 42.621094 31.644531 42.601562 31.789062 42.644531 C 31.925781 42.691406 32.058594 42.808594 32.214844 42.808594 C 32.371094 42.808594 32.503906 42.691406 32.644531 42.644531 C 32.785156 42.601562 32.964844 42.621094 33.085938 42.535156 C 33.207031 42.449219 33.246094 42.277344 33.332031 42.164062 C 33.421875 42.046875 33.578125 41.960938 33.625 41.824219 C 33.671875 41.6875 33.597656 41.53125 33.597656 41.382812 "/>
<path style=" stroke:none;fill-rule:nonzero;fill:rgb(20%,20%,20%);fill-opacity:1;" d="M 36.441406 43.734375 C 36.441406 43.585938 36.519531 43.425781 36.472656 43.292969 C 36.425781 43.152344 36.265625 43.066406 36.179688 42.953125 C 36.089844 42.835938 36.054688 42.667969 35.933594 42.582031 C 35.8125 42.496094 35.632812 42.515625 35.488281 42.472656 C 35.347656 42.425781 35.214844 42.308594 35.0625 42.308594 C 34.90625 42.308594 34.773438 42.425781 34.636719 42.472656 C 34.488281 42.515625 34.308594 42.496094 34.191406 42.582031 C 34.066406 42.667969 34.03125 42.835938 33.941406 42.953125 C 33.855469 43.066406 33.699219 43.152344 33.652344 43.292969 C 33.605469 43.425781 33.679688 43.585938 33.679688 43.734375 C 33.679688 43.882812 33.605469 44.039062 33.652344 44.175781 C 33.699219 44.3125 33.855469 44.398438 33.941406 44.511719 C 34.03125 44.628906 34.066406 44.800781 34.191406 44.886719 C 34.308594 44.972656 34.488281 44.949219 34.636719 44.996094 C 34.773438 45.039062 34.90625 45.160156 35.0625 45.160156 C 35.214844 45.160156 35.347656 45.042969 35.488281 44.996094 C 35.632812 44.949219 35.8125 44.972656 35.933594 44.886719 C 36.054688 44.800781 36.089844 44.628906 36.179688 44.511719 C 36.269531 44.398438 36.425781 44.3125 36.472656 44.175781 C 36.519531 44.039062 36.441406 43.882812 36.441406 43.734375 "/>
<path style=" stroke:none;fill-rule:nonzero;fill:rgb(100%,74.901962%,12.54902%);fill-opacity:1;" d="M 29.800781 14.78125 L 29.800781 23.050781 L 26.339844 21.605469 L 22.875 23.050781 L 22.875 14.78125 L 29.800781 14.78125 "/>
<path style=" stroke:none;fill-rule:nonzero;fill:rgb(97.647059%,76.862746%,25.098041%);fill-opacity:1;" d="M 22.585938 14.488281 L 22.585938 23.488281 L 26.335938 21.925781 L 30.085938 23.488281 L 30.085938 14.488281 L 22.585938 14.488281 M 29.800781 15.882812 L 29.800781 23.050781 L 26.339844 21.605469 L 22.875 23.050781 L 22.875 14.78125 L 29.800781 14.78125 L 29.800781 15.882812 "/>
<path style=" stroke:none;fill-rule:nonzero;fill:rgb(0%,0%,0%);fill-opacity:1;" d="M 25.792969 16.246094 C 25.726562 16.253906 25.691406 16.289062 25.691406 16.359375 L 25.691406 16.871094 C 25.691406 16.941406 25.734375 16.976562 25.804688 16.964844 L 26.132812 16.925781 L 26.132812 20.292969 C 26.132812 20.347656 26.164062 20.378906 26.21875 20.378906 L 26.773438 20.378906 C 26.828125 20.378906 26.859375 20.347656 26.859375 20.292969 L 26.859375 16.199219 C 26.859375 16.144531 26.828125 16.113281 26.773438 16.113281 Z M 25.792969 16.246094 "/>
<path style=" stroke:none;fill-rule:nonzero;fill:rgb(100%,74.901962%,12.54902%);fill-opacity:1;" d="M 21.351562 27.871094 L 21.351562 36.140625 L 17.890625 34.695312 L 14.425781 36.140625 L 14.425781 27.871094 L 21.351562 27.871094 "/>
<path style=" stroke:none;fill-rule:nonzero;fill:rgb(97.647059%,76.862746%,25.098041%);fill-opacity:1;" d="M 14.136719 27.582031 L 14.136719 36.578125 L 17.886719 35.011719 L 21.636719 36.578125 L 21.636719 27.582031 L 14.136719 27.582031 M 21.351562 28.972656 L 21.351562 36.140625 L 17.890625 34.695312 L 14.425781 36.140625 L 14.425781 27.871094 L 21.351562 27.871094 L 21.351562 28.972656 "/>
<path style=" stroke:none;fill-rule:nonzero;fill:rgb(0%,0%,0%);fill-opacity:1;" d="M 18.773438 31.976562 C 18.875 31.921875 18.921875 31.882812 18.921875 31.78125 L 18.921875 30.523438 C 18.921875 30.019531 18.648438 29.753906 18.152344 29.753906 L 17.554688 29.753906 C 17.054688 29.753906 16.785156 30.019531 16.785156 30.523438 L 16.785156 31.085938 C 16.785156 31.140625 16.8125 31.171875 16.871094 31.171875 L 17.425781 31.171875 C 17.480469 31.171875 17.511719 31.140625 17.511719 31.085938 L 17.511719 30.671875 C 17.511719 30.53125 17.582031 30.457031 17.726562 30.457031 L 17.980469 30.457031 C 18.113281 30.457031 18.195312 30.53125 18.195312 30.671875 L 18.195312 31.460938 L 16.925781 32.140625 C 16.824219 32.195312 16.785156 32.238281 16.785156 32.339844 L 16.785156 33.914062 C 16.785156 33.984375 16.824219 34.019531 16.890625 34.019531 L 18.8125 34.019531 C 18.882812 34.019531 18.921875 33.984375 18.921875 33.914062 L 18.921875 33.097656 C 18.921875 33.027344 18.882812 32.992188 18.8125 32.992188 L 18.300781 32.992188 C 18.230469 32.992188 18.195312 33.027344 18.195312 33.097656 L 18.195312 33.316406 L 17.617188 33.316406 C 17.546875 33.316406 17.511719 33.277344 17.511719 33.210938 L 17.511719 32.746094 C 17.511719 32.6875 17.53125 32.648438 17.585938 32.617188 Z M 18.773438 31.976562 "/>
</g>
</svg>
