<?xml version="1.0" encoding="UTF-8"?>
<svg xmlns="http://www.w3.org/2000/svg" xmlns:xlink="http://www.w3.org/1999/xlink" width="64" height="64" viewBox="0 0 64 64" version="1.1">
<g id="surface1">
<path style="fill-rule:nonzero;fill:rgb(83.137256%,83.137256%,83.137256%);fill-opacity:1;stroke-width:0.97833;stroke-linecap:butt;stroke-linejoin:miter;stroke:rgb(0%,0%,0%);stroke-opacity:1;stroke-miterlimit:4;" d="M 26.765625 15 L 103.234375 15 C 109.734375 15 115 19.070312 115 24.09375 L 115 105.90625 C 115 110.929688 109.734375 115 103.234375 115 L 26.765625 115 C 20.265625 115 15 110.929688 15 105.90625 L 15 24.09375 C 15 19.070312 20.265625 15 26.765625 15 Z M 26.765625 15 " transform="matrix(0.5,0,0,0.5,0,0)"/>
<path style="fill-rule:nonzero;fill:rgb(28.235295%,35.294119%,42.352942%);fill-opacity:1;stroke-width:0.349334;stroke-linecap:butt;stroke-linejoin:miter;stroke:rgb(0%,0%,0%);stroke-opacity:1;stroke-miterlimit:4;" d="M 15 10 L 20 10 C 22.757812 10 25 12.242188 25 15 L 25 115 C 25 117.757812 22.757812 120 20 120 L 15 120 C 12.242188 120 10 117.757812 10 115 L 10 15 C 10 12.242188 12.242188 10 15 10 Z M 15 10 " transform="matrix(0.5,0,0,0.5,0,0)"/>
<path style=" stroke:none;fill-rule:nonzero;fill:rgb(83.137256%,55.686277%,8.235294%);fill-opacity:1;" d="M 15 17.5 L 20 17.5 L 20 25 L 15 25 Z M 15 17.5 "/>
<path style=" stroke:none;fill-rule:nonzero;fill:rgb(83.137256%,55.686277%,8.235294%);fill-opacity:1;" d="M 29.316406 17.5 L 45.683594 17.5 C 46.6875 17.5 47.5 18.621094 47.5 20 L 47.5 22.5 C 47.5 23.878906 46.6875 25 45.683594 25 L 29.316406 25 C 28.3125 25 27.5 23.878906 27.5 22.5 L 27.5 20 C 27.5 18.621094 28.3125 17.5 29.316406 17.5 Z M 29.316406 17.5 "/>
<path style=" stroke:none;fill-rule:nonzero;fill:rgb(95.294118%,45.09804%,16.078432%);fill-opacity:1;" d="M 15 30 L 20 30 L 20 37.5 L 15 37.5 Z M 15 30 "/>
<path style=" stroke:none;fill-rule:nonzero;fill:rgb(95.294118%,45.09804%,16.078432%);fill-opacity:1;" d="M 22.5 32.5 L 32.5 32.5 C 33.878906 32.5 35 33.058594 35 33.75 C 35 34.441406 33.878906 35 32.5 35 L 22.5 35 C 21.121094 35 20 34.441406 20 33.75 C 20 33.058594 21.121094 32.5 22.5 32.5 Z M 22.5 32.5 "/>
<path style=" stroke:none;fill-rule:nonzero;fill:rgb(67.843139%,37.254903%,0%);fill-opacity:1;" d="M 20 45 L 30 45 C 31.378906 45 32.5 45.558594 32.5 46.25 C 32.5 46.941406 31.378906 47.5 30 47.5 L 20 47.5 C 18.621094 47.5 17.5 46.941406 17.5 46.25 C 17.5 45.558594 18.621094 45 20 45 Z M 20 45 "/>
<path style=" stroke:none;fill-rule:nonzero;fill:rgb(95.294118%,45.09804%,16.078432%);fill-opacity:1;" d="M 28.863281 30 L 41.136719 30 C 41.890625 30 42.5 31.121094 42.5 32.5 L 42.5 35 C 42.5 36.378906 41.890625 37.5 41.136719 37.5 L 28.863281 37.5 C 28.109375 37.5 27.5 36.378906 27.5 35 L 27.5 32.5 C 27.5 31.121094 28.109375 30 28.863281 30 Z M 28.863281 30 "/>
<path style=" stroke:none;fill-rule:nonzero;fill:rgb(67.843139%,37.254903%,0%);fill-opacity:1;" d="M 15 42.5 L 20 42.5 L 20 50 L 15 50 Z M 15 42.5 "/>
<path style=" stroke:none;fill-rule:nonzero;fill:rgb(67.843139%,37.254903%,0%);fill-opacity:1;" d="M 29.773438 42.5 L 50.226562 42.5 C 51.484375 42.5 52.5 43.621094 52.5 45 L 52.5 47.5 C 52.5 48.878906 51.484375 50 50.226562 50 L 29.773438 50 C 28.515625 50 27.5 48.878906 27.5 47.5 L 27.5 45 C 27.5 43.621094 28.515625 42.5 29.773438 42.5 Z M 29.773438 42.5 "/>
<path style=" stroke:none;fill-rule:nonzero;fill:rgb(83.137256%,55.686277%,8.235294%);fill-opacity:1;" d="M 20 17.5 C 21.378906 17.5 22.5 18.621094 22.5 20 L 22.5 22.5 C 22.5 23.878906 21.378906 25 20 25 C 18.621094 25 17.5 23.878906 17.5 22.5 L 17.5 20 C 17.5 18.621094 18.621094 17.5 20 17.5 Z M 20 17.5 "/>
<path style=" stroke:none;fill-rule:nonzero;fill:rgb(95.294118%,45.09804%,16.078432%);fill-opacity:1;" d="M 20 30 C 21.378906 30 22.5 31.121094 22.5 32.5 L 22.5 35 C 22.5 36.378906 21.378906 37.5 20 37.5 C 18.621094 37.5 17.5 36.378906 17.5 35 L 17.5 32.5 C 17.5 31.121094 18.621094 30 20 30 Z M 20 30 "/>
<path style=" stroke:none;fill-rule:nonzero;fill:rgb(67.843139%,37.254903%,0%);fill-opacity:1;" d="M 20 42.5 C 21.378906 42.5 22.5 43.621094 22.5 45 L 22.5 47.5 C 22.5 48.878906 21.378906 50 20 50 C 18.621094 50 17.5 48.878906 17.5 47.5 L 17.5 45 C 17.5 43.621094 18.621094 42.5 20 42.5 Z M 20 42.5 "/>
<path style=" stroke:none;fill-rule:nonzero;fill:rgb(83.137256%,55.686277%,8.235294%);fill-opacity:1;" d="M 22.5 20 L 32.5 20 C 33.878906 20 35 20.558594 35 21.25 C 35 21.941406 33.878906 22.5 32.5 22.5 L 22.5 22.5 C 21.121094 22.5 20 21.941406 20 21.25 C 20 20.558594 21.121094 20 22.5 20 Z M 22.5 20 "/>
<path style=" stroke:none;fill-rule:nonzero;fill:rgb(83.137256%,55.686277%,8.235294%);fill-opacity:1;" d="M 22.5 20 L 32.5 20 C 33.878906 20 35 20.558594 35 21.25 C 35 21.941406 33.878906 22.5 32.5 22.5 L 22.5 22.5 C 21.121094 22.5 20 21.941406 20 21.25 C 20 20.558594 21.121094 20 22.5 20 Z M 22.5 20 "/>
</g>
</svg>
